<?xml version="1.0" encoding="UTF-8"?>
<!--Created with Inkscape (http://www.inkscape.org/)-->
<svg id="svg2" width="3397.28" height="1973.81" inkscape:version="0.92.4 (5da689c313, 2019-01-14)" sodipodi:docname="Tundra_bean_goose_bwpr.svg" xmlns="http://www.w3.org/2000/svg" xmlns:inkscape="http://www.inkscape.org/namespaces/inkscape" xmlns:sodipodi="http://sodipodi.sourceforge.net/DTD/sodipodi-0.dtd">
 <sodipodi:namedview bordercolor="#666666" borderopacity="1" gridtolerance="10" guidetolerance="10" inkscape:current-layer="svg2" inkscape:cx="1698.276" inkscape:cy="1296" inkscape:pageopacity="0" inkscape:pageshadow="2" inkscape:window-height="1015" inkscape:window-maximized="0" inkscape:window-width="1213" inkscape:window-x="0" inkscape:window-y="46" inkscape:zoom=".098" objecttolerance="10" pagecolor="#ffffff" showgrid="false"/>
 <path id="path2987" d="m3103.28 1972.31c0-.825.45-1.5 1-1.5s1-.8303 1-1.845c0-2.0852 3.3074-5.5143 4.3312-4.4905s.7948 4.3355-.2998 4.3355c-.5328 0-.7096.675-.393 1.5.3645.9498-.014 1.5-1.0314 1.5-.8839 0-1.607.45-1.607 1s-.675 1-1.5 1-1.5-.675-1.5-1.5zm-107.396-27.0902c-.3356-.8747-.3572-1.9997-.048-2.5.3092-.5004-.1659-.9098-1.0558-.9098s-1.3691.4028-1.0648.8952c.5718.9251-1.6143 2.1048-3.9004 2.1048-.7158 0-1.6093-1.0125-1.9855-2.25-.4143-1.3631-.8873-1.7573-1.1999-1-.7146 1.7308-3.0161 1.5736-3.0161-.206 0-.8008.375-1.2243.8334-.941.4583.2833.8333-.3747.8333-1.4622s.2731-2.689.607-3.559c.3338-.87.1088-1.5818-.5-1.5818-.6089 0-1.107.4904-1.107 1.0897 0 1.6379-4.2502 4.7515-5.7174 4.1885-.7054-.2707-1.2826-1.5849-1.2826-2.9204 0-2.0613-.2823-2.2771-1.8685-1.4282-1.0277.55-2.1527.7159-2.5.3685-.3473-.3473-.6315-.051-.6315.6577 0 1.0325-.2986 1.0413-1.5.044-.825-.6847-1.5-1.8273-1.5-2.5391s-.4453-1.4442-.9895-1.6276c-1.254-.4224.6727-7.8333 2.0365-7.8333.5242 0 .953-.675.953-1.5s.45-1.5 1-1.5 1-.7165 1-1.5923c0-.8757.9-2.7364 2-4.1348 1.1-1.3985 2-3.1461 2-3.8836s.8983-2.8143 1.9963-4.6151c1.0979-1.8008 1.9979-4.0617 2-5.0242 0-.9625.4859-1.75 1.0753-1.75 1.2859 0 .8443-5.0625-.5716-6.5519-.9061-.9531-7.9465-4.4272-13-6.4149-1.1-.4326-4.925-1.3192-8.5-1.97-6.0696-1.1051-11.8428-2.6134-21.5-5.6172-2.731-.8494-4-1.8171-4-3.0503 0-1.3044 1.1111-2.033 4-2.6227 2.2-.4491 5.5263-1.5331 7.3917-2.4089 6.8181-3.2011 15.9973-2.5082 24.4853 1.8482 2.2654 1.1626 10.5368 3.3203 16.373 4.2711 2.9321.4777 4.25.3367 4.25-.4545 0-.6308.4156-.8901.9235-.5762 1.3773.8512 4.7391-4.4629 5.2936-8.3677.7763-5.4668-4.9332-10.3112-15.2171-12.9115-5.145-1.301-9.9833-1.1435-10.0311.3265-.018.55-.6633.1674-1.4342-.8501-.7709-1.0176-1.8502-1.5729-2.3985-1.2341-.5483.3389-3.8407-.2647-7.3166-1.3412-3.4758-1.0765-7.5571-2.2173-9.0696-2.535s-2.75-1.0788-2.75-1.6914c0-1.5892 4.0015-4.8482 5.9528-4.8482 2.0504 0 9.8168-4.9572 10.4819-6.6905.2703-.7042-.392-4.0456-1.4717-7.4252-1.0796-3.3797-1.963-6.7612-1.963-7.5146 0-1.9653-1.76-1.6908-2.4384.3803-.3152.9625-2.3338 3.6423-4.4857 5.955-2.1519 2.3128-4.2046 5.1253-4.5616 6.25-.357 1.1248-1.0572 2.045-1.556 2.045s-1.5982 1.3367-2.443 2.9704c-1.4079 2.7225-5.7199 6.167-5.4112 4.3224.5108-3.0519-.2096-3.5464-2.3541-1.6159-3.5891 3.2311-4.6277 3.5716-4.0401 1.3245.3517-1.345.031-2.0014-.9766-2.0014-2.2846 0-2.5931-2.7829-1.992-17.9683.6124-15.4681.5031-15.8342-5.6634-18.9718-1.9678-1.0013-6.0145-3.0766-8.9927-4.6118-4.4222-2.2796-7.4466-2.9565-16.5-3.6932-6.0968-.4961-13.448-.6763-16.3359-.4006-3.7597.359-5.6563.096-6.6786-.9265-.7853-.7853-2.3037-1.4278-3.3743-1.4278-4.2566 0-8.3173-1.3573-9.2446-3.0901-.8404-1.5703-.4219-1.9755 2.99-2.8942 2.182-.5876 5.2252-2.1096 6.7627-3.3822 5.0178-4.1533 12.7765-5.2454 18.7955-2.6456 6.8599 2.963 31.4432 3.7184 36.3066 1.1156 1.0617-.5682 2.2146-.749 2.5619-.4016.9303.9302.7239-4.5974-.3435-9.2019-1.1715-5.0537.73-8.5 4.6901-8.5 3.0274 0 27.6071 8.0785 28.1182 9.2415.1834.4172.7742.7585 1.313.7585 1.5392 0 14.0658 6.2319 15.9839 7.9519 3.847 3.4496 4.9569 4.1155 7.8111 4.6864 1.6393.3278 2.8857.9209 2.7696 1.3179-.116.397 1.1977 1.9139 2.9194 3.3709 3.0668 2.5955 5.0687 6.6729 3.2761 6.6729-1.8008 0-.8577 3.8807 1.0936 4.5 1.1.3491 2 1.3276 2 2.1744 0 .8833.5767 1.3183 1.3529 1.0204.7442-.2855 2.0674.3152 2.9407 1.3351.8732 1.0198 3.5268 2.412 5.897 3.0938 5.5872 1.6071 8.1896 4.2253 7.3853 7.4301-.6039 2.4061-.7505 2.4354-11.8315 2.3664-6.171-.039-11.7492-.5092-12.396-1.046-.7161-.5943-2.4692-.641-4.4825-.1193-3.0638.794-3.3971 1.2929-4.5425 6.801-1.6124 7.7533-1.6273 12.283-.046 13.8646 1.2094 1.2093 7.1901 3.5316 10.2531 3.9811.7763.114 1.7619.5599 2.1904.991 1.839 1.8505 7.8852 3.6074 12.4146 3.6074 4.5513 0 7.7441-1.0775 10.3715-3.5 2.2421-2.0673 5.4837-15.4179 6.5439-26.9507.7606-8.2746 1.6348-12.7348 2.8422-14.5.9591-1.4021 2.3041-4.4972 2.9889-6.8779 1.4817-5.1508 5.6517-12.961 8.2547-15.4604 1.0247-.9839 1.8631-2.4723 1.8631-3.3075s1.033-3.4052 2.2955-5.7111c1.2626-2.3058 2.9392-6.2174 3.7258-8.6924 2.3076-7.2609 6.9401-16.1795 8.1879-15.7636.6342.2114 1.6638 1.9014 2.2881 3.7555l1.135 3.3711 1.6839-2.404c.9261-1.3222 1.6838-1.868 1.6838-1.2129s.6765.9315 1.5033.6142c1.0793-.4141 1.681.3111 2.1329 2.5705.3462 1.731 1.1276 2.9813 1.7365 2.7783 1.6592-.5531 4.2858 3.3287 4.9333 7.2909 1.4018 8.578 2.636 14.074 3.5122 15.6396.5209.9307.63 2.8551.2426 4.2763-.4196 1.539-.1758 3.5952.6026 5.0841 1.0124 1.9364 1.3104 2.0921 1.3219.691.01-.995.4233-1.5565.9226-1.2479 1.2461.7701 11.1891-8.9895 14.4396-14.1732 1.4589-2.3266 2.6525-5.1391 2.6525-6.25 0-1.111.366-2.0199.8134-2.0199.4473 0 1.4313-1.575 2.1866-3.5 1.5802-4.0273 4.0549-4.5561 6.2003-1.3248 1.8117 2.7285 4.3682 1.9222 6.0144-1.8971 1.1402-2.6452 5.0189-8.126 9.2255-13.0362 3.0776-3.5922 2.8033-5.7542-1.4055-11.0787-4.8026-6.0758-7.3445-6.9935-21.0347-7.5945-12.1461-.5332-19-1.482-19-2.6303 0-.4433-1.0962-.6072-2.4361-.3642-1.3398.2429-2.7164-.012-3.059-.5662-.3426-.5544-2.1189-1.008-3.9473-1.008-2.6697 0-3.4106-.4506-3.7618-2.2877-.5904-3.0889.058-4.7058 1.6424-4.0976.7199.2762 4.3318-.926 8.0264-2.6716 7.5918-3.587 12.7411-3.9837 21.5354-1.6592 3.025.7995 9.0971 1.5323 13.4935 1.6284 4.3964.096 8.3687.5499 8.8272 1.0084.4586.4586 2.4866.4498 4.5066-.02 8.403-1.9525 22.7896-.5184 28.857 2.8767 1.2013.6722 3.3122 1.2222 4.6909 1.2222s2.7849.45 3.1248 1 1.7165 1 3.059 1c1.3426 0 2.441.45 2.441 1s.6766 1 1.5036 1 3.1829.9 5.2352 2c2.0524 1.1 4.3684 2 5.1467 2 1.9837 0 11.788 4.9016 13.1948 6.5967.6405.7718 1.7845 1.4033 2.5421 1.4033.7577 0 1.3776.45 1.3776 1s.608 1 1.3511 1c.743 0 3.4669 1.125 6.0529 2.5s5.3499 2.5 6.1421 2.5c2.996 0 9.3632 3.5054 10.3664 5.7073 1.2102 2.656 2.1094 2.4702-13.7111 2.834-7.611.175-10.7427.6386-12 1.7765-.9358.8468-2.1452 1.4592-2.6877 1.3609-.5425-.098-1.1447.7213-1.3384 1.8213-.446 2.5342-5.1108 12.5142-6.7796 14.5046-.6939.8276-1.4172 2.6672-1.6075 4.0881s-1.2213 3.8938-2.2911 5.4954c-1.8949 2.8367-2.1122 3.3324-2.3721 5.4119-.069.55-.8 1-1.625 1s-1.5.6846-1.5 1.5214-2.25 3.7952-5 6.5743-5 5.4925-5 6.0296c0 .5372-1.5204 1.612-3.3787 2.3885-1.8583.7764-3.6364 2.0831-3.9513 2.9038-.3149.8206-2.353 2.4003-4.529 3.5105-2.1761 1.1101-4.1613 2.593-4.4116 3.2952-.3253.9127-1.1357.6541-2.8422-.907-1.7452-1.5964-2.8347-1.9321-4.0513-1.2484-2.2051 1.2394-4.149.3971-5.3936-2.3371-.5585-1.2269-1.674-2.0611-2.4789-1.8536-.8049.2074-2.0061.3949-2.6694.4167-.6633.022-1.0047.3652-.7586.7634s-.5612 1.3963-1.794 2.218c-4.1181 2.745-6.7124 5.4203-5.9732 6.1596.4025.4025.2818.5845-.2682.4045-1.0647-.3483-4.4968 1.9241-9.682 6.4106-1.748 1.5125-3.6482 2.75-4.2227 2.75-1.3184 0-7.5953 6.9892-7.5953 8.4572 0 2.5717-10.2483 20.9911-13.4738 24.2166-1.9394 1.9394-3.5262 3.9837-3.5262 4.5428 0 .5592-.8996.7814-1.999.4939-2.3476-.6139-2.6844-.2082-3.1468 3.7895-.1908 1.65-.7986 3.3221-1.3506 3.7157-1.3167.9391 5.5599 6.6972 7.2319 6.0556.6955-.2669 1.2645-.058 1.2645.4634 0 .5218 1.9125 1.5164 4.25 2.2103 2.3375.6938 4.7 1.603 5.25 2.0204.55.4173 2.206 1.0466 3.6801 1.3982 1.474.3517 3.3706 1.33 4.2146 2.174 1.3795 1.3794 1.2943 1.9606-.8424 5.7485l-2.377 4.2139-5.3376-.4139c-2.9358-.2276-7.3627-.3663-9.8377-.3082-2.475.058-9.3622.1494-15.305.203-10.6689.096-10.7961.1252-10.1044 2.3044.3852 1.2139 1.2455 2.6588 1.9116 3.2109.6662.5521 1.9817 3.0029 2.9234 5.4463 1.7785 4.6145 4.8803 8.0575 7.2588 8.0575.7581 0 1.6374.675 1.954 1.5s1.1721 1.5 1.9012 1.5c2.2546 0 2.941 4.1754.9283 5.6471-2.4183 1.7683-18.9724 1.7056-20.7566-.079-.8399-.8398-5.1964-1.4551-12.4075-1.7522-11.0094-.4536-11.1428-.432-14.2943 2.3196-1.7496 1.5276-2.9399 3.1678-2.645 3.6449.2948.4771-.4464.8341-1.6472.7934-1.2007-.041-2.1909.4674-2.2003 1.1292-.021 1.4893-8.0307 9.2967-9.5374 9.2967-.6037 0-.8195-.45-.4796-1s.3168-1.4874-.051-2.0831c-.4003-.6477-1.3753.078-2.4252 1.804-2.9691 4.8823-6.7621 8.5242-7.3636 7.0704-.402-.9716-.8866-.858-1.9573.4587-.7827.9625-1.936 1.75-2.5628 1.75-.6269 0-1.1398.45-1.1398 1 0 1.5857-1.7242 1.161-2.3963-.5902zm375.977-201.972c-.6183-.6183-5.8394-2.611-11.6023-4.4282-5.763-1.8172-10.6281-3.6877-10.8114-4.1567-.1834-.4689-.9431-.8526-1.6884-.8526-1.6127 0-10.9819-5.0285-17.9783-9.649-5.9605-3.9364-10.4666-7.5493-15.6149-12.5197-2.09-2.0177-6.6316-5.1007-10.0925-6.8511s-7.0139-3.5495-7.8956-3.998c-.8816-.4486-3.6941-.8825-6.25-.9643-7.682-.246-8.4384-.3978-7.9768-1.6009.2437-.635-1.3915-1.8886-3.6338-2.7858-4.6074-1.8435-7.4556-2.1185-6.5364-.6312.3399.55.058 1-.6265 1s-2.3478 1.0125-3.6962 2.25c-1.7123 1.5714-2.5868 1.8711-2.8999.9938-.2465-.691-.9293-.9589-1.5173-.5955s-.8043.2322-.4806-.2915c.3237-.5238.2025-1.5769-.2693-2.3402-.6517-1.0546-1.1874-1.1144-2.2301-.2491-1.9651 1.6309-5.8632 1.1293-5.6914-.7323.3539-3.8368-.2033-6.0352-1.5297-6.0352-.7925 0-1.7281-.4647-2.0791-1.0326-1.0541-1.7055-2.4039-7.0386-1.6656-6.5808.3771.2339.5918-4.3463.4771-10.1781-.1267-6.4399.2159-11.1148.8725-11.9059 1.6343-1.9693-1.031-1.6646-5.538.6332-2.0883 1.0647-4.4335 1.6915-5.2114 1.393-.778-.2985-1.4176-.1571-1.4213.3142-.012 1.4556-6.8194 5.5825-8.0026 4.8512-1.2164-.7518-5.2161 2.3319-4.5089 3.4762.239.3867-.9013.6236-2.534.5265-1.6328-.097-3.4894.4509-4.1259 1.2178-2.2592 2.7222-4.7697 3.4803-6.3365 1.9135-1.0337-1.0337-1.1222-1.5826-.2993-1.8569 1.3241-.4413.2277-2.7713-1.304-2.7713-.55 0-.7219.45-.382 1s.029 1.0061-.691 1.0137c-.7199.01-2.3919.3034-3.7154.6575-1.7943.4801-2.2068.321-1.6219-.6255.4582-.7413.2112-1.6324-.5936-2.1422-1.0899-.6903-1.0122-.8761.3719-.8882 2.3241-.02 2.2163-1.6356-.25-3.7473-2.5716-2.2019-2.5205-2.8607.5-6.4504 1.375-1.6341 2.5-3.6115 2.5-4.3943s.45-1.4233 1-1.4233 1-.6117 1-1.3592c0-.7476 1.3269-3.8457 2.9486-6.8848 1.6217-3.039 2.6342-5.8741 2.25-6.3001s.066-.5008 1.0005-.1662c1.1988.4293 1.5377.188 1.1511-.8194-.6114-1.5935 3.9921-9.5785 8.0408-13.9472 1.4491-1.5636 2.9994-4.2334 3.4451-5.933.7554-2.8802.6016-3.1383-2.2628-3.7992-1.6903-.3899-4.8032-.9325-6.9175-1.2057s-4.3643-.893-5-1.3774c-.6357-.4843-3.1634-.9781-5.6172-1.0972-6.061-.2942-7.4808-1.5868-4.9455-4.5026 1.0789-1.2409 3.5244-2.8693 5.4343-3.6187s3.4726-1.6846 3.4726-2.0781c0-.8209-5.4611-2.9996-8.6464-3.4495-1.1805-.1667-3.5206-1.0138-5.2003-1.8824s-3.8638-1.5828-4.8536-1.5871c-.9899 0-2.3159-1.1209-2.9468-2.4814-1.0775-2.3233-.9313-2.5332 2.4061-3.4547 1.9543-.5396 3.9295-.7486 4.3892-.4645 1.1254.6955 4.4635-1.2372 3.9229-2.2713-.2359-.4511.4391-.9849 1.5-1.186s2.1539-.6712 2.4289-1.0447 2.2826-1.1089 4.4614-1.6343c3.4496-.8319 4.6698-.5965 9.4445 1.8217 3.6828 1.8653 6.8145 2.719 9.5386 2.6003 2.2305-.097 7.1624.185 10.9596.6269 4.0822.4751 6.6791.4341 6.3536-.1003-.3028-.4972 1.4259-.9597 3.8415-1.0279 4.8836-.1378 7.4008-1.6679 7.4008-4.4984 0-1.0327.45-1.8776 1-1.8776s1-.675 1-1.5.45-1.5 1-1.5 1-.5668 1-1.2595.9377-1.845 2.0837-2.5607 1.852-1.9049 1.5689-2.6428c-.2831-.7378-.2083-1.648.1663-2.0226.7236-.7235.8576-1.304 1.0561-4.5734.069-1.1325.5823-1.7764 1.1413-1.4309.559.3454.7145 1.1165.3455 1.7135-.4009.6487-.2053.7977.4864.3702.8094-.5002.8559-1.2782.1545-2.5887-1.3723-2.5642-1.2583-3.3171.4056-2.6787.9097.3491 1.6345-.3609 2.0474-2.0058 1.0068-4.0115 5.6567-9.1749 10.2943-11.4313 2.3375-1.1372 4.25-2.6867 4.25-3.4433 0-2.0367-3.8142-3.7095-6.7678-2.9681-2.257.5664-2.4184.4514-1.2844-.915 1.1087-1.336.9803-1.5629-.8844-1.5629-1.1998 0-1.9212.4211-1.6031.9357.3551.5747-.5972.5986-2.4682.062-1.6755-.4805-8.4342-.6852-15.0193-.4548-6.585.2304-11.9728.028-11.9728-.4507 0-1.003-6.5158-2.5067-9.5535-2.2047-1.1295.1123-2.8383-.663-3.7975-1.7228-1.607-1.7758-1.6168-2.054-.125-3.5458.8904-.8904 2.0633-1.6189 2.6064-1.6189.5432 0 .7099-.4493.3705-.9985s.1964-.8867 1.191-.75c.9945.1367 2.0128-.2015 2.263-.7515.6059-1.3318 3.9556-2.9813 7.0451-3.4693 2.2711-.3587 9.9724-.3131 26.5.1569 6.8015.1934 13.5063-.7939 14.9075-2.1951.5932-.5932 1.4462-.5289 2.2917.1728 1.0088.8373 2.2921.6914 5.1147-.5814 3.8665-1.7435 21.5114-2.9193 20.5536-1.3695-.267.4321.216.7856 1.0735.7856.8574 0 1.559.4008 1.559.8906s1.6875 1.1642 3.75 1.4987c5.127.8313 5.4073.8369 8.25.1626 1.7881-.4241 1.9747-.3604.6553.2239-1.6735.741-1.6039.9266.75 1.9991 1.4271.6502 2.596.8544 2.5976.4537 0-.4007 1.5884-.7629 3.5262-.8047 2.3776-.051 3.1939.2531 2.5107.9363-1.3383 1.3383 1.6122 4.6398 4.1466 4.6398 1.032 0 2.1453.7009 2.474 1.5575s1.2146 1.3207 1.9686 1.0314c.7541-.2894 1.371-.09 1.371.4425 0 .5327 1.5028.9686 3.3395.9686 2.5846 0 3.5949.5607 4.4696 2.4803.8102 1.7782 1.634 2.2992 2.9105 1.8407.9792-.3518 1.4499-.275 1.0459.1708-.4039.4457.043 1.3791.9937 2.0741 1.301.9513 1.9113.9757 2.4692.099.4943-.777.7461-.6178.7563.4782.01.9037.7271 1.9162 1.5971 2.25 2.1705.8329 2.6325.7628 1.9758-.2997-.3082-.4987.3657-.6646 1.4976-.3686 1.2212.3193 1.8444 1.0946 1.5327 1.9067-.4297 1.1198.292 1.6836 1.6621 1.2983.1375-.039 1.5422.421 3.1216 1.0215 2.1217.8066 3.238.7878 4.2742-.072.7714-.6402 1.6917-.8749 2.045-.5215.3534.3534.072.6425-.6257.6425-.6975 0 1.365 1.3718 4.5834 3.0484 6.5819 3.4289 8.3519 5.2339 7.6742 7.8257-.484 1.8506-2.8493 2.1546-5.2448.6741-1.0057-.6216-1.162-.4932-.5684.4672.5944.9617.3628 1.1496-.8455.6859-.9152-.3512-1.664-.2991-1.664.1158s-.7875.771-1.75.7914c-6.4874.1373-20.8242 1.6882-21.2426 2.298-.2791.4067-1.2635 1.0179-2.1877 1.3583-2.1512.7924-11.2631 14.2929-12.3075 18.2352-.4371 1.65-.7427 5.378-.6791 8.2845.104 4.7523-.1335 5.3792-2.3587 6.2252-1.3609.5175-2.4744 1.633-2.4744 2.4791 0 1.7043-1.7944 5.1688-3.8075 7.3515-.7191.7797-1.0618 2.0579-.7615 2.8406.3025.7882.1051 1.1505-.4425.812-.985-.6087-1.3696.6575-1.0653 3.5071.1145 1.0721-.073 1.1585-.6579.3028-.5216-.7634-1.3416-.8737-2.2627-.3044-.7946.4911-1.1241 1.2134-.7323 1.6052s.2026 1.3266-.4204 2.0773c-.9098 1.0962-.7604 1.2251.7587.6548 1.6606-.6235 1.7265-.5073.5396.9521-1.1772 1.4478-1.03 1.8089 1.1402 2.7977 1.3705.6245 3.0407 2.161 3.7116 3.4145s2.2593 2.7527 3.5299 3.3317c2.3127 1.0537 2.6329 2.5166 1.0914 4.9856-.561.8985-.1546 1.492 1.2781 1.8666 1.1553.3022 2.1006.9469 2.1006 1.4327 0 .4859 1.2375.8903 2.75.8987 3.3209.019 5.7369 1.3879 4.8839 2.7681-.3423.5539.05 1.2651.8718 1.5804.8219.3154 1.4874 1.6001 1.479 2.8548-.012 1.8398-.203 1.991-.9847.7814-.8276-1.2806-1.3322-.8607-1.2018 1 .019.275-3.4149.4895-7.6316.4767-4.2166-.013-8.4073.4037-9.3125.9255-1.1801.6803-2.1405.4542-3.3938-.799-1.2809-1.2809-2.4441-1.5404-4.3541-.9714-1.4334.4271-5.9812.8382-10.1062.9136-8.146.149-12.3543 1.0724-11.4626 2.5151.3116.5041-.06.6763-.8252.3825-.7655-.2937-1.969.1615-2.6744 1.0115-.7055.85-1.8868 1.5455-2.6251 1.5455-1.6188 0-3.4127 3.1016-3.4127 5.9003 0 2.5353-2.9241 8.9617-5.25 11.5383-.9625 1.0662-1.75 2.4412-1.75 3.0557 0 .6144-1.11 2.6217-2.4668 4.4607-1.3567 1.8389-2.1872 3.7959-1.8455 4.3488.3417.5528.1329.7033-.4641.3344-.597-.369-1.3184-.2938-1.6033.1671-.7701 1.2461 3.0889 4.1947 5.49 4.1947 2.878 0 8.9726 3.0066 11.4156 5.6316 1.5085 1.6209 2.7632 2.0358 4.9137 1.6247 2.3323-.4458 2.7724-.2513 2.2879 1.0114-.465 1.2118.5665 1.8527 4.5863 2.8494 2.8524.7073 5.7148 1.1834 6.3608 1.0579.646-.1254 1.4601.2339 1.809.7985 1.0509 1.7004 2.4019 1.1566 2.2467-.9042-.08-1.0619-.4511-1.7419-.8246-1.511-.3735.2308-1.2352-.2504-1.9148-1.0693-.6797-.819-.9382-1.489-.5744-1.489s-.2561-.9849-1.3775-2.1886c-1.1215-1.2037-2.0929-2.4412-2.1588-2.75-.5913-2.7719-.3107-34.2953.3087-34.6781.4461-.2757.8111.065.8111.7577 0 .9792.2667.9923 1.2.059 1.6657-1.6657 2.8527-1.501 2.1616.3-.6483 1.6896-.7044 1.6724 6.1384 1.8756 4.3812.1302 4.9639.3946 4.7083 2.1365-.2223 1.515-.069 1.6584.6427.6026.9906-1.4689 6.149-.8202 6.149.7732 0 .4674 1.2557.7035 2.7905.5248 2.236-.2603 2.822.093 2.9491 1.7803.087 1.1578.6975 2.6006 1.3562 3.2061.8982.8257.9973.7498.3964-.3036-.537-.9413-.4205-1.1692.3533-.691.635.3924 1.1545 1.3885 1.1545 2.2135s.3844 1.2625.8542.9721c.4699-.2904 1.7044 1.2199 2.7435 3.3561 1.1927 2.4521 2.1625 3.4545 2.6304 2.7189.538-.8456.7455-.8062.7566.1439.01.72.4601 1.0341 1.0038.6981.5883-.3636.7205.088.3264 1.1146-.5192 1.3532-.2769 1.5777 1.1228 1.0406 1.3558-.5203 1.6387-.3037 1.1765.9007-.637 1.6599 1.6937 4.7958 2.7668 3.7227.3404-.3405.619.083.619.9406 0 1.7207 2.6614 3.2305 5 2.8363.825-.139 1.1839.069.7976.4614-1.5104 1.5357 2.5747 3.8682 6.843 3.9072 2.7824.025 4.2371.4452 3.9685 1.1451-.2332.6078-.034 1.7355.4418 2.506.7046 1.1402 1.1047 1.1621 2.1491.1177s1.0056-1.4588-.2084-2.2263c-1.2236-.7736-1.1322-.9431.5084-.9431 2.7139 0 4.0975 1.0433 4.9326 3.7194.3862 1.2375 1.2708 2.25 1.9658 2.25s1.8575 1.1096 2.5833 2.4659c.7259 1.3562 1.6351 2.2709 2.0205 2.0327 1.9069-1.1785 2.9978 8.6256 2.9978 26.9414v19.7079l-12.1477-.2931c-7.2706-.1754-12.5991-.7445-13.2719-1.4173zm-86.3971-61.6542c-.7175-.7175-1.1833-.7766-1.1833-.15 0 1.3348 1.1826 2.5174 1.85 1.85.2842-.2841-.016-1.0491-.6667-1.7zm16.8167-86.2833c0-.825-.1769-1.5-.393-1.5-.2162 0-.652.675-.9686 1.5s-.1398 1.5.393 1.5c.5327 0 .9686-.675.9686-1.5zm-11.7292 85.8958c.3323-.3323 1.1948-.3678 1.9167-.079.7977.3192.5608.5562-.6042.6042-1.0541.043-1.6448-.193-1.3125-.5253zm-91.1919-76.8125c-.043-1.0541.193-1.6448.5253-1.3125s.3678 1.1948.079 1.9167c-.3192.7977-.5562.5608-.6042-.6042zm-4.8081-10.1875c.3323-.3323 1.1948-.3678 1.9167-.079.7977.3192.5608.5562-.6042.6042-1.0541.043-1.6448-.193-1.3125-.5253zm168.294-29.6889c.3755-.9862.9347-1.5412 1.2426-1.2334.3079.3079.0006 1.1148-.6828 1.7932-.9876.9802-1.1025.8654-.5598-.5598zm6.9357-3.7069c-.3399-.55-.1415-1 .441-1 .5824 0 1.059.45 1.059 1s-.1984 1-.441 1c-.2425 0-.7191-.45-1.059-1zm-111.75-23.6623c.6875-.2774 1.8125-.2774 2.5 0s.125.5044-1.25.5044-1.9375-.227-1.25-.5044zm108.25-1.7787c0-1.0555 1.9191-1.4989 2.4899-.5753.3455.559-.073 1.0163-.9309 1.0163-.8574 0-1.559-.1984-1.559-.441zm-65-22.5206c0-.6378.9808-.8303 2.4069-.4724 1.3237.3322 3.4008.072 4.6157-.5781 1.7855-.9556 2.1238-.9239 1.7654.165-.5385 1.6359-8.788 2.4672-8.788.8855zm-135.5-56.1195c-1.65-.5001-3.5131-.7195-4.1403-.4876-.6272.232-2.116-.4872-3.3085-1.5982-2.2319-2.0793-3.1352-2.1338-23.3012-1.405-2.6125.094-4.75-.1883-4.75-.6282 0-.44-1.9405-.7999-4.3122-.7999s-6.1749-.9-8.4517-2c-2.2767-1.1-5.0237-2-6.1045-2-1.0807 0-2.1149-.3397-2.2983-.7549-.1833-.4151-3.8208-2.4647-8.0833-4.5546s-7.75-4.2733-7.75-4.8521-.675-.7934-1.5-.4768c-.9034.3467-1.5.01-1.5-.8578 0-.7884-.8355-1.8806-1.8568-2.4271-1.8869-1.0099-7.6105-5.744-11.8808-9.8267-1.2943-1.2375-3.056-2.25-3.9148-2.25-.8971 0-1.342-.5722-1.0455-1.3448.2838-.7396-.3888-1.9771-1.4946-2.75-1.1059-.7729-3.9382-2.8876-6.2941-4.6994-2.4254-1.8653-5.9601-3.5289-8.1484-3.8353-2.1258-.2975-4.54-.7968-5.365-1.1094-.825-.3127-2.2408-.4789-3.1462-.3695s-4.2242-.7071-7.375-1.8146c-4.3198-1.5183-6.2111-1.7554-7.6895-.9642-1.0783.5771-2.2221.7878-2.5416.4682-.3196-.3195-.056-.581.5856-.581.6417 0 1.1667-.4697 1.1667-1.0438s-.5625-.9308-1.25-.7927c-2.0721.4164-6.75-1.1293-6.75-2.2303 0-.5658 1.1658-2.1091 2.5907-3.4297 1.6182-1.4997 2.3044-2.8894 1.8281-3.7022-.4194-.7157.1613-.4925 1.2905.4961 1.8528 1.6222 2.2038 1.6466 3.6004.25.8511-.8511 2.0296-1.5474 2.6189-1.5474s1.0714-.375 1.0714-.8333c0-.4584.5625-.8741 1.25-.9239.6875-.05 2.825-.3539 4.75-.6757 5.0429-.8432 12.7811.3568 14.7046 2.2803.9089.9089 1.7972 1.5401 1.974 1.4026 1.1072-.8612 4.5177.03 6.0324 1.5763.984 1.0044 3.364 2.4239 5.289 3.1543 1.925.7305 4.0625 2.0197 4.75 2.8649 1.1016 1.3543 1.25 1.3132 1.25-.3455 0-1.7339.099-1.75 1.25-.2046.6875.9227 2.7125 1.965 4.5 2.3161 2.7234.535 3.2628.3347 3.3289-1.2365.044-1.0538.2999-1.3275.5834-.625.7399 1.8338 4.2954 1.5239 5.049-.44.3621-.9436.1274-1.8638-.5314-2.0834-.6489-.2163-1.1799-1.0573-1.1799-1.869 0-.8116.45-1.1975 1-.8576s1-.057 1-.882c0-1.9793-1.6906-2.9741-2.3356-1.3742-.3189.7908-.5358.6387-.5855-.4105-.043-.9166.4836-1.9291 1.1711-2.25 1-.4666 1-.7 0-1.1666-.6875-.3209-1.25-1.2209-1.25-2 0-.7792-.5625-1.4522-1.25-1.4956-1-.063-1-.1799 0-.5834.6875-.2774 1.25-1.8434 1.25-3.4801 0-2.0515-.3882-2.779-1.25-2.3425-.6875.3483-.5273.035.3559-.6958 1.195-.989 1.3414-1.7483.5722-2.9678-.7764-1.2309-.5828-2.0897.778-3.4505 1.0751-1.0751 1.3717-1.9584.7294-2.1725-1.2364-.4121.554-5.2285 1.9436-5.2285.4445 0 .5491-.675.2325-1.5s-.077-1.5.5314-1.5c.6089 0 1.107-.675 1.107-1.5s.5428-1.3875 1.2061-1.25c1.3546.2808 2.9167-7.5481 2.1449-10.75-.3838-1.5924-.2759-1.7002.5291-.529 1.1367 1.6537 1.2777 1.5516 2.8112-2.035.7549-1.7655.7786-3.1319.076-4.3872-.736-1.3152-.7065-1.6292.1061-1.127.6919.4276 1.1265-.075 1.1265-1.3038 0-1.1.4573-2.2826 1.0163-2.6281.559-.3454.7345-1.0842.3899-1.6416-.3445-.5574.7379-.308 2.4054.5543 1.7345.8969 3.1721 1.1515 3.36.595.1892-.5603 1.5676-.3292 3.2508.5449 2.2097 1.1476 3.102 1.227 3.6592.3255.4656-.7534.8623-.3043 1.0776 1.2199.2693 1.906 1.0266 2.4781 3.6098 2.7269 1.7979.1731 3.0226.7133 2.7215 1.2005s.2971 2.4614 1.3292 4.3871c1.298 2.4218 2.1969 3.181 2.9156 2.4623.7186-.7186 1.2756-.6561 1.8063.2027.4947.8004.3571.988-.3871.5281-1.3914-.8599-1.4792.3424-.1757 2.4045 1.211 1.9156 2.181 1.3801 3.8893-2.1471.7525-1.5537 1.765-2.5797 2.25-2.2799.4851.2998.8819-.2822.8819-1.2932 0-1.0111.9-2.487 2-3.2798s2.0013-1.9047 2.0029-2.4708c0-.566 1.3045-1.9012 2.8953-2.967 3.2202-2.1574 6.5174-7.0807 5.6653-8.4595-.3036-.4912.1204-1.1512.9422-1.4665.8219-.3154 1.4943-1.2251 1.4943-2.0215s.5232-1.6224 1.1626-1.8356c1.1848-.3949 1.9205-2.5624 2.1881-6.4458.082-1.1916.53-2.0916.9954-2 .4654.092 1.2384-.8458 1.7178-2.0833.5361-1.3839.4991-2.25-.096-2.25-.5323 0-.9678-.4766-.9678-1.059 0-.5825.4532-.779 1.0071-.4366.5538.3423 1.277-.081 1.607-.941.6577-1.7142 3.3859-2.1681 3.3859-.5634 0 1.3298 4.7036 1.2885 5.53-.049.9443-1.5279 3.47.838 3.47 3.2505 0 1.6043.4956 1.8559 2.75 1.3957 5.1078-1.0426 6.276 1.0437 6.7417 12.0397.4549 10.7437.6854 32.8347.3711 35.5687-.1079.9383-.6364 1.4339-1.1745 1.1014-.585-.3616-.7771.4478-.4777 2.0137.2752 1.4401.1287 2.3886-.3257 2.1077-.4545-.2808-1.1049.7453-1.4454 2.2803s-1.0409 4.1847-1.5565 5.8883c-.5155 1.7035-.6446 3.8603-.2868 4.7928.6459 1.6831-2.0888 12.109-3.7251 14.2018-.4695.6006-.5577 1.3881-.1958 1.75s.1065.658-.5677.658c-.6741 0-.9475.45-.6076 1s.1855 1-.3432 1c-.5286 0-1.4371 1.3654-2.0189 3.0342-.6269 1.7983-.6667 2.7926-.098 2.441.5279-.3263.9599.1565.9599 1.0728 0 1.0077-.5467 1.4562-1.3835 1.1351-.8739-.3354-2.0711.8224-3.25 3.143-1.0266 2.0206-2.4385 4.0391-3.1375 4.4854-.6991.4463-1.0032 1.2449-.6757 1.7747.3274.5299.2237.8397-.2305.6886-.4543-.1512-2.5185 1.2652-4.5871 3.1475-2.8467 2.5901-3.6074 3.9274-3.1287 5.5.941 3.0917 10.2918 11.8305 11.97 11.1865.8409-.3227 1.423.068 1.423.954 0 .825.769 1.7951 1.709 2.1558.9399.3606 2.7257 1.809 3.9684 3.2186 1.2427 1.4095 2.2736 1.9771 2.291 1.2613.018-.7316 1.0733-.1775 2.4103 1.2651 1.6283 1.757 2.942 2.3506 4.1641 1.8816 1.1032-.4233 1.5446-.2957 1.1554.3342-.3465.5606.4797 1.9841 1.8359 3.1633 2.8468 2.4753 2.9277 2.9626.9304 5.6036-1.1423 1.5103-1.7399 1.6783-2.6682.75-1.5402-1.5402-2.8668-1.5359-2.5463.01.1529.7368-1.0121 1.2222-3 1.25-1.7875.025-3.25-.217-3.25-.5378 0-.3209-.6552-.5834-1.456-.5834s-1.2243.375-.941.8334c.6174.999-.1402.9532-4.103-.2478zm-43.2292-3.5231c.3323-.3323 1.1948-.3678 1.9167-.079.7977.3192.5608.5562-.6042.6042-1.0541.043-1.6448-.193-1.3125-.5253zm30.7292-31.8368c0-.2425.45-.7191 1-1.059s1-.1415 1 .441c0 .5824-.45 1.059-1 1.059s-1-.1984-1-.441zm-132-22.059c0-.825.4359-1.5.9686-1.5.5328 0 .7096.675.393 1.5s-.7524 1.5-.9686 1.5c-.2161 0-.393-.675-.393-1.5zm-69.5-2.5536c-18.6665-.559-24.8262-1.0774-27.7179-2.3326-2.0448-.8876-5.0558-1.6138-6.691-1.6138s-3.2742-.4872-3.6422-1.0828c-.3681-.5955-2.5951-1.9082-4.9489-2.9172s-4.5808-2.3217-4.9489-2.9172c-.368-.5956-1.3176-1.0828-2.1101-1.0828-.7926 0-2.248-.7875-3.2344-1.75s-3.0892-2.65-4.6729-3.75c-1.5836-1.1-5.5787-4.6824-8.8779-7.961-6.4123-6.3722-11.9521-10.539-14.0116-10.539-.6969 0-2.1394-.7875-3.2056-1.75-4.3823-3.956-16.1297-7.5663-24.0274-7.3842-3.9294.091-5.3534-.2728-5.8185-1.4847-.4307-1.1225-1.4956-1.4756-3.5435-1.175-1.6487.242-2.8451-.011-2.7385-.5788.1041-.5547-.7107-1.1998-1.8107-1.4336s-2.246-.8141-2.5467-1.2895-2.2254-1.0793-4.2771-1.342c-4.7014-.6019-5.6762-1.2137-5.6762-3.5622 0-2.8419 1.6395-3.5239 9.309-3.8724 1.6394-.074 2.5453-.5543 2.1757-1.1524-.3484-.5636-.2624-.9379.191-.8317 1.8669.4374 8.3349-1.4514 9.4111-2.7481 1.4334-1.7272 6.2771-1.6808 10.9132.1046 1.925.7413 3.05 1.4092 2.5 1.4841-.55.075 1.925.9524 5.5 1.9499s9.7541 3.4724 13.7314 5.4997c7.2954 3.7187 15.202 5.8855 13.9227 3.8156-.4172-.6751.1041-.8638 1.4291-.5173 1.5857.4147 1.7659.7483.7513 1.3914-.8504.5391.1164.826 2.6655.791 3.1427-.043 3.5713-.2392 2-.9144-1.8536-.7965-1.8222-.8646.429-.9297 3.5697-.1033 9.071-2.2964 9.071-3.6162 0-.6293.9159-1.973 2.0353-2.986 1.1194-1.0131 1.796-2.4654 1.5036-3.2274-.2925-.7621-.046-2.2934.548-3.403.5938-1.1096 1.2208-5.4803 1.3932-9.7127.3436-8.434 1.8845-13.0424 5.8932-17.625 1.4433-1.65 2.6248-3.7936 2.6255-4.7636 0-1.9988 1.6727-5.1927 4.2512-8.124.9625-1.0943 1.75-2.5836 1.75-3.3096 0-1.8055 5.0174-7.3028 6.6653-7.3028.7341 0 1.2222-.3655 1.0847-.8121-.3337-1.0841 5.4295-10.1879 6.4494-10.1879.4403 0 .8006-.6385.8006-1.419 0-1.6948 3.2215-7.5657 4.1564-7.5747.361 0 .421-.9063.1333-2.0063-.2924-1.1182-.031-2 .5937-2 .6141 0 1.1166-.6269 1.1166-1.393 0-.7662.675-1.652 1.5-1.9686s1.5-1.3129 1.5-2.214c0-1.0831.5361-1.4327 1.5818-1.0314.87.3339 1.995.607 2.5.607s.9182.4821.9182 1.0714.5625 1.6181 1.25 2.2861c1.4775 1.4358 6.0562 1.947 5.2126.582-.3194-.5167-.1041-.9395.4784-.9395.5824 0 1.059.6908 1.059 1.5352 0 2.4418 3.6504-.01 4.3873-2.9422.3395-1.3528 1.5046-2.7413 2.589-3.0855 2.3964-.7606 6.2461-5.9217 5.2442-7.0307-.3963-.4386-.2033-.5018.4288-.1403.6584.3764 2.794-1.3435 5-4.0269 2.1179-2.5762 4.6382-5.4998 5.6007-6.4968s1.75-2.6378 1.75-3.6461c0-2.5402 1.0661-3.3567 2.658-2.0356 1.0145.842 1.342.7706 1.342-.2924 0-.7734 1.5818-3.8613 3.515-6.862 1.9333-3.0008 3.3249-5.9514 3.0926-6.557-.5972-1.5562.4027-2.6616 4.2242-4.6697 4.2638-2.2406 4.8166-2.2023 5.4919.3799.3721 1.4227 1.0748 1.9311 2.1166 1.5314.8579-.3292 1.5597-.1076 1.5597.4925 0 .7747.3722.7822 1.2835.026 2.0532-1.7039 3.7564.1421 3.3502 3.631-.2042 1.7542.02 3.1894.4975 3.1894.4778 0 .921-.7875.9848-1.75.1086-1.6389.1453-1.6373.5783.026.2547.9782 1.2131 1.6519 2.134 1.5 1.0545-.1741 1.5398.2779 1.3144 1.2241-.1965.825-.4599 2.8855-.5853 4.579-.1254 1.6934-.5937 3.6708-1.0408 4.3941-.447.7233-.7753 2.6311-.7296 4.2396.046 1.6084-.743 4.8518-1.7527 7.2074-1.1012 2.5688-1.5033 4.821-1.0049 5.6275.4571.7396.4283 2.0972-.064 3.017-.4923.9199-.6221 1.9453-.2886 2.2789.3336.3336-.4697 1.5028-1.7851 2.5982-1.3155 1.0955-1.8817 2.0067-1.2583 2.025.6234.018 1.3459 1.1447 1.6056 2.503.2596 1.3584.089 2.233-.3792 1.9436-.4682-.2893-1.3516.7368-1.9631 2.2803-.6116 1.5435-1.5135 3.5878-2.0043 4.5428-.4908.9551-.9067 2.7551-.9242 4-.017 1.245-.6925 3.1371-1.5 4.2047-.8075 1.0677-1.4682 2.8252-1.4682 3.9056 0 1.0805-1.1535 3.4769-2.5634 5.3253-1.4098 1.8484-2.6258 4.3659-2.702 5.5944-.076 1.2285-.4008 2.4586-.7211 2.7336-3.0342 2.6047-5.0135 6.7807-5.0135 10.5776 0 2.3694-1.0877 7.3712-2.4172 11.1152-1.3294 3.744-3.0026 8.9447-3.7183 11.5572-.7156 2.6125-1.5918 4.75-1.947 4.75s-1.4576 2.1375-2.4499 4.75-2.534 5.875-3.4259 7.25c-2.6784 4.1287-3.9922 6.3691-5.2779 9-.6719 1.375-1.7937 2.8599-2.4927 3.2997-.6991.4398-1.2711 1.2455-1.2711 1.7905 0 .5449-.945 2.269-2.1 3.8312-1.2745 1.7239-2.1 4.3479-2.1 6.6755 0 3.121.6239 4.3619 3.35 6.6631 5.3441 4.5111 5.85 4.862 5.85 4.0566 0-.4193 1.3456.7109 2.9902 2.5115 1.9713 2.1584 5.1232 3.9682 9.25 5.3114 11.6748 3.7999 18.575 10.0501 12.771 11.5678-1.0938.286-1.7907.8404-1.5488 1.2319.242.3915-1.4505.5551-3.7612.3634-5.003-.415-6.2583-.4154-10.2012 0-1.65.1725-3.5625-.1044-4.25-.6153-.8092-.6013-1.25-.533-1.25.1937 0 .6173-.3375 1.047-.75.9549-.4125-.092-11.55-.4909-24.75-.8861zm18.5-39.9464c0-.55.45-1 1-1s1 .45 1 1-.45 1-1 1-1-.45-1-1zm-125-3c0-.55.1984-1 .441-1 .2425 0 .7191.45 1.059 1s.1415 1-.441 1c-.5824 0-1.059-.45-1.059-1zm288-10.941c0-.5824.45-1.059 1-1.059s1 .1984 1 .441c0 .2425-.45.7191-1 1.059s-1 .1415-1-.441zm-198-80c0-.5824.45-1.059 1-1.059s1 .1984 1 .441c0 .2425-.45.7191-1 1.059s-1 .1415-1-.441zm-194.998-18.2776c0-.3953-.6195-.4819-1.3736-.1925-.754.2894-2.0008-.1037-2.7706-.8735-2.8902-2.8901-5.9534-3.7138-14.0394-3.7751-11.1666-.085-12.8189-.2334-12.8189-1.1546 0-.4321-.8946-.7857-1.988-.7857-2.4484 0-21.3211-5.9651-22.012-6.9574-.275-.3949-1.4-.9865-2.5-1.3146-5.6087-1.673-9.7548-3.5889-12.0103-5.55-1.3777-1.1979-2.8641-2.178-3.303-2.178-1.7291 0-21.1232-16.6668-27.0545-23.25-.8672-.9625-2.3216-1.75-3.232-1.75s-2.169-.6189-2.7968-1.3754c-.6278-.7564-3.2704-1.9512-5.8724-2.6551-2.6021-.7039-5.181-1.6099-5.731-2.0133-1.0935-.802-9.7162-1.8134-18.75-2.1991-3.1625-.1351-5.75-.6606-5.75-1.168 0-.5073-.2741-.6483-.6091-.3134-.335.335-2.716-.2213-5.2911-1.2364-2.5751-1.015-5.7583-2.0016-7.0736-2.1924-1.6211-.2351-2.6272-1.2335-3.1229-3.0988-.6903-2.5974-.5115-2.7871 3.1827-3.3778 2.1527-.3443 3.914-1.0184 3.914-1.4981s1.0125-.8875 2.25-.9061c1.2375-.019 4.05-.9034 6.25-1.9661 5.3688-2.5933 13.8848-2.6079 18.9365-.032 2.1226 1.0822 4.162 1.7805 4.5321 1.5518.37-.2286 2.1143.4609 3.8762 1.5324 1.762 1.0715 4.5134 1.9482 6.1143 1.9482 3.288 0 8.2105 1.6564 9.0738 3.0533.5782.9355 7.6102 1.8631 18.2171 2.403l5.75.2926v-4.2396c0-2.7254-.7143-5.1477-2-6.7822-1.1-1.3984-1.9931-3.3716-1.9847-4.3848.013-1.5751.169-1.6247 1.0748-.3423.7908 1.1195.9059.5684.454-2.172-.3491-2.1171-.169-3.9418.4252-4.309.5669-.3504 1.0307-2.6355 1.0307-5.078 0-2.459.4726-4.441 1.059-4.441.5825 0 .7687-.4698.4138-1.044-.3548-.5742 0-2.0367.7788-3.25 1.6875-2.6141 4.0153-15.9088 4.1633-23.778.063-3.34.7591-6.5447 1.738-8l1.6332-2.428 3.5813 1.8937c2.8538 1.509 3.8784 1.6472 5.0431.6806 2.1482-1.7829 5.1976.2161 5.9321 3.8888.5596 2.7978.8669 2.9927 3.9478 2.5031 2.5127-.3994 3.7828-.043 5.1233 1.4384.9802 1.0832 1.4866 2.4477 1.1252 3.0324-.3754.6075.153 1.063 1.2331 1.063 1.0863 0 2.4319 1.1695 3.1643 2.75 3.5536 7.6691 4.4484 9.25 5.2354 9.25.4713 0 .6122 1.3887.3132 3.0859-.4464 2.5339-.1705 3.1835 1.5423 3.6315 1.1472.3 1.8706 1.1065 1.6075 1.7922s-.031 1.6939.5154 2.2405c1.2501 1.2501 5.8309-.7102 5.8421-2.5001 0-.6875.9078-1.25 2.0078-1.25s2-.45 2-1 .6592-1 1.4648-1c.8057 0 1.9465-.9 2.5352-2s1.703-2 2.4762-2 1.7269-.5195 2.1193-1.1545c.4721-.7639.2707-.8808-.5955-.3455s-1.0676.4184-.5955-.3455c.3924-.635 1.3534-1.1545 2.1355-1.1545.782 0 1.7291-1.2241 2.1046-2.7201.3755-1.4961 1.71-3.8281 2.9656-5.1821 1.2555-1.3541 2.0431-2.8497 1.7502-3.3237-.2929-.4739.024-1.5326.7047-2.3525.6805-.82 1.1986-2.8507 1.1514-4.5127-.05-1.7616.51-3.2504 1.343-3.5701.786-.3016 1.2001-.9188.9202-1.3716-.5492-.8887 3.3581-2.4628 4.1493-1.6715.263.263.5499 1.4291.6374 2.5913.1716 2.2776.1395 2.2536 3.4836 2.6041 1.2375.1297 2.25-.1669 2.25-.659 0-1.8094 3.0004-1.9745 4.7154-.2596 1.2307 1.2308 1.3992 1.8893.5552 2.1706-.812.2707-.5202 1.1217.8848 2.5804 1.45 1.5055 2.2373 1.7911 2.5538.9265.2516-.6875 1.37-1.25 2.4854-1.25 1.7621 0 1.9449.4428 1.3944 3.3775-.5466 2.9133-.3213 3.478 1.6387 4.1082 1.2497.4018 2.6098.6819 3.0223.6225.4125-.059.75.3418.75.8918s-.5625 1.0069-1.25 1.0153c-.8333.01-.75.3385.25.9847.9423.609 1.0483.9751.2852.9847-2.0426.026-3.3834 3.6269-2.3562 6.3285.6747 1.7746.5173 3.0324-.5746 4.5912-.8272 1.1809-1.307 2.698-1.0664 3.3714.2407.6733-.1929 2.4726-.9635 3.9985-.7705 1.5259-1.2894 3.3259-1.1529 4 .1364.6741-.3122 2.2382-.997 3.4757-1.0025 1.8118-.9947 2.2562.04 2.2816.7069.017.023 1.1424-1.5206 2.5-1.5431 1.3576-2.6148 2.4684-2.3815 2.4684s-1.5416 1.9658-3.9443 4.3684c-3.6667 3.6668-5.277 7.196-4.1184 9.0266.1375.2173-.6072 1.3423-1.655 2.5-1.0477 1.1578-1.4977 2.1193-1 2.1368.4978.017.2245.58-.6072 1.25s-2.0244 2.3785-2.6503 3.7965c-.626 1.4181-3.4079 5.3057-6.182 8.6392-2.7742 3.3334-4.7315 6.4482-4.3497 6.9216.3818.4735.3192.5609-.1391.1942-1.2296-.9836-4.9981 3.1753-5.2809 5.8281-.1344 1.2603.061 2.2488.4349 2.1966 1.994-.2784 3.1793.2949 3.1793 1.5378 0 2.74 9.2686 7.5584 15.8655 8.2479 3.4081.3562 6.4342 1.0321 6.7245 1.502.2904.4699 1.6874.8543 3.1043.8543 2.7146 0 7.3057 4.0801 7.3057 6.4925 0 .7642.3969 1.6347.8819 1.9345.4851.2998.9074 2.3889.9385 4.6424.043 3.0983-.2818 3.9675-1.331 3.5649-.9069-.348-1.1949-.03-.8315.9166.4229 1.1021-.3676 1.4731-3.3009 1.5493-15.2129.3951-21.3523.3035-21.3545-.3188zm-262.002-99.463c-.825-.288-3.1875-1.3703-5.25-2.405s-3.75-1.6734-3.75-1.4194c0 .2541-2.1131-.8781-4.6958-2.516-4.5757-2.9018-5.0211-2.978-17.4166-2.978-7.458 0-12.8588-.4075-13.0543-.9849-.1833-.5416-3.0333-1.4738-6.3333-2.0715s-6.7321-1.4737-7.6269-1.9467c-.8948-.4731-3.3698-1.174-5.5-1.5576s-4.9981-1.2564-6.3731-1.9395-6.2125-2.9872-10.75-5.1202c-4.5375-2.1329-8.25-4.2159-8.25-4.6288 0-.413-.5723-.7508-1.2718-.7508s-3.512-2.0671-6.25-4.5936c-7.2259-6.6676-11.7104-10.1093-15.0421-11.5443-1.6149-.6955-4.0611-2.0018-5.4361-2.9029-4.4666-2.9271-15.454-5.0074-33.1227-6.2716-1.6382-.1172-2.4426-.6568-2.143-1.4376.42-1.0946-2.2578-1.8167-5.0248-1.3549-.4348.072-1.5988-.3007-2.5867-.8294-2.4706-1.3222-1.9259-6.3989.7105-6.6222 2.6563-.2249 8.0254-1.9601 9.9332-3.2101 1.2628-.8274 2.5444-1.2559 2.848-.9522.3037.3037 1.4147-.3104 2.4688-1.3645 1.1184-1.1184 3.2703-1.9065 5.1667-1.8923 4.6868.035 12.0811 1.8933 12.9169 3.2457.3939.6373 1.7567 1.2043 3.0285 1.26 1.2717.056 3.5666.9231 5.0997 1.9276s3.7813 1.9589 4.9962 2.1209c1.2148.162 4.6773 1.223 7.6946 2.3579 6.9949 2.6311 12.4009 2.6767 14.9516.126 1.3182-1.3182 2.0921-1.558 2.4211-.75.2832.6956.5162.5268.5625-.4075.043-.8773-.7956-2.3864-1.8644-3.3537-1.763-1.5954-3.7248-6.926-3.2435-8.8125.1069-.4187-.8873-2.8937-2.2091-5.5-2.1892-4.3163-2.3783-5.7633-2.121-16.2285.1829-7.4349-.2054-13.3634-1.1003-16.7988-1.5116-5.8037-1.7005-7.8473-.4353-4.7115.633 1.5689.9686.9222 1.5571-3 .9318-6.2101 1.3174-6.8926 3.0717-5.4367.769.6383 2.1023.8903 2.9629.56.9-.3453 1.3051-.1804.9537.3882-1.0337 1.6725.7109 1.0921 1.9947-.6637 1.1101-1.5181 1.3623-1.4907 3.1102.3378 1.0462 1.0944 2.4001 2.8485 3.0086 3.898 1.0139 1.7487 1.3355 1.7854 3.8505.4395 2.4713-1.3227 2.8682-1.2989 3.9925.2386.6866.939 1.6078 1.3767 2.0471.9728.4394-.404.5364.3281.2157 1.6267-.4767 1.9305-.06 2.5589 2.2865 3.4444 1.5784.5958 3.094 1.941 3.3682 2.9894s.9788 1.6094 1.5658 1.2466c.6315-.3903 1.0673.2289 1.0673 1.5164 0 1.2283 1.6759 3.7584 3.8479 5.809 7.9638 7.519 9.8287 8.6463 11.7147 7.0811 1.9597-1.6264 5.4374 1.384 5.4374 4.7069 0 3.0878 2.3295 3.0129 4.8213-.155 1.0816-1.375 2.2884-2.5 2.6817-2.5.7948 0 4.7962 3.4777 7.3449 6.3836.9087 1.036 2.8629 3.1617 4.3427 4.7238 1.4799 1.562 3.4366 4.4121 4.3484 6.3335s2.1616 3.3958 2.7774 3.2763 1.359 1.3578 1.6516 3.2828.9378 3.5 1.4337 3.5c.8594 0 1.2565 3.9372 1.513 15 .084 3.6224.383 4.5867 1.0853 3.5.5332-.825.9763-.9889.9847-.3643.024 1.7918-2.2461 5.6688-5.1474 8.7906-1.5418 1.6589-2.4174 3.5042-2.0801 4.3834.4219 1.0995.1909 1.291-.8373.694-.842-.4888-1.0807-.4538-.5866.086.4584.5007 1.1852.9103 1.6153.9103.43 0 2.0914 1.35 3.6918 3 6.1027 6.2917 10.3904 9.4846 15.8007 11.7661 3.0792 1.2985 5.2521 2.7126 4.8287 3.1425-.4234.4298-.095.6854.7302.568 3.7251-.5304 5.585.222 6.75 2.7306 2.5947 5.587.4729 11.1331-3.7469 9.7938-1.1949-.3793-2.0031-.1813-2.0031.4906 0 .6196-.4189.8675-.9309.5511s-1.2136-.118-1.559.441c-.6525 1.0558-4.9022 1.2452-7.5101.3347zm-803.05-2.6888c-.7978-.6253-1.5991-1.8059-1.7807-2.6238-.5459-2.4583-2.5109-3.0071-4.458-1.245-1.5867 1.4359-1.9584 1.4628-2.7575.1994-.508-.8031-.9306-2.2109-.939-3.1284-.029-3.1814-1.1106-4.6196-3.0852-4.1033-1.0674.2792-2.5423.01-3.2774-.6018-.7352-.6101-1.6938-.7758-2.1302-.368-.4364.4077-.2723-.2606.3646-1.4851s1.3729-5.9495 1.6356-10.5.6803-9.6236.9281-11.2736c1.5034-10.0127 3.9469-21.7457 5.5188-26.5 2.1462-6.4917 4.0304-15.1316 4.0304-18.4818 0-3.4165-3.532-4.3065-6.3995-1.6126-1.2262 1.1519-2.777 2.0944-3.4463 2.0944s-1.475.6724-1.7904 1.4943c-.3153.8218-.9451 1.2645-1.3995.9836-.4544-.2808-1.1088-.053-1.4542.5058-.3455.559-1.7228 1.0163-3.0606 1.0163-1.3495 0-2.9886.8904-3.6816 2-.7702 1.2333-2.332 2-4.0742 2-1.5538 0-3.7531.4966-4.8873 1.1036-1.1341.607-4.3671 1.4923-7.1842 1.9673-2.8172.4751-6.5888 1.1552-8.3814 1.5113-1.9629.39-3.8217.1806-4.6738-.5266-1.1062-.9181-2.3261-.709-5.5963.9593-3.0493 1.5557-5.2484 1.9842-8.1209 1.5824-2.1666-.303-3.7396-.2239-3.4956.1759.2441.3997-1.0408.8042-2.8553.8987-3.1548.1645-4.1571-1.3471-2.1945-3.3096 1.0415-1.0416.8384-2.3623-.3634-2.3623-.5825 0-.7604.4832-.3954 1.0738.3664.5928-.2502.5031-1.3763-.2001-1.122-.7007-1.8412-1.5955-1.5984-1.9884.2429-.393-.081-.8887-.72-1.1017-.6389-.2129.9953-2.6139 3.6315-5.3354 19.8242-20.4656 28.55-29.0824 28.9974-28.6351.2861.2861.5202-.037.5202-.7186 0-.6814 1.9907-3.3439 4.4237-5.9167s5.4705-5.8508 6.75-7.2845c1.2795-1.4336 3.748-3.4191 5.4857-4.412 2.3931-1.3676 2.8782-2.0856 2-2.9607-2.5228-2.5138-8.6381-3.5351-25.0259-4.1794-12.1754-.4786-17.4924-1.0572-18.442-2.0069-.7339-.7338-1.9833-1.3343-2.7765-1.3343s-2.2235-.4228-3.1786-.9396c-.955-.5168-2.9932-1.2052-4.5292-1.5298-4.7065-.9946-4.8371-5.0579-.1858-5.7809 1.0882-.1692 2.571-.6771 3.2951-1.1288.7241-.4516 1.5658-.572 1.8704-.2674.3045.3046 3.2209-.7926 6.4808-2.4381 6.2471-3.1536 14.6881-4.125 18.4576-2.1242 2.1141 1.1222 21.8659 2.784 27.664 2.3275 2.0841-.1641 4.4355.238 5.2254.8935.9415.7814 6.3516 1.2467 15.7107 1.3511 13.0488.1456 14.8757.3976 21.2746 2.9345 10.2386 4.0592 18.9518 8.0938 19.3333 8.9522.1834.4125.9102.75 1.6152.75s2.4072.8853 3.7827 1.9672c1.3756 1.082 2.7756 1.6926 3.1113 1.3569.3358-.3357.8942.1291 1.241 1.0328.3467.9037 1.4965 1.6431 2.5549 1.6431s2.1834.675 2.5 1.5.9903 1.5 1.4973 1.5c1.2008 0 13.4302 9.4993 17.6085 13.6776 3.859 3.8589 6.3859 5.3224 9.1901 5.3224 1.1361 0 2.0657.4766 2.0657 1.059 0 .5825.4668.7705 1.0373.4179.5706-.3526 2.8201 1.1958 4.9989 3.441 2.1789 2.2452 3.7212 4.0821 3.4275 4.0821s-.091.8285.4513 1.8411c.8249 1.5414.383 2.1545-2.7149 3.7663-3.3539 1.7451-4.355 1.8143-10.7001.7393-11.742-1.9893-14.784-2.0194-15.0585-.1489-.3058 2.0833-4.9833 14.2864-7.0786 18.4671-.8828 1.7614-1.2438 3.7569-.8142 4.5.4246.7343.4025 1.0003-.049.591-.4516-.4092-1.3112.077-1.9103 1.0805-.5991 1.0034-2.1005 3.3633-3.3364 5.244-1.2359 1.8808-2.5423 4.9946-2.9031 6.9196-.5663 3.0216-6.2529 14.3921-12.2904 24.5749-1.9454 3.2811-9.0011 11.323-15.5594 17.7342-2.2 2.1507-3.8966 4.2835-3.7703 4.7397.2335.8431-2.8201 2.1461-4.3761 1.8673-2.0703-.3709-4.4288.1531-3.9773.8837.9315 1.5072-2.8451 3.0686-4.4258 1.8298zm446.55-1.9101c-5.1112-1.4672-10.5078-2.0692-20-2.2311-13.9903-.2385-32.6776-2.2059-33.5133-3.5282-.2823-.4467-2.7517-1.3758-5.4876-2.0647-5.7654-1.4518-25.2462-10.8381-29.9671-14.4389-1.7714-1.3511-3.5828-2.4566-4.0254-2.4566-.4425 0-2.2579-1.4625-4.0341-3.25-8.2038-8.2557-13.448-10.5735-26.9725-11.9207-5.5-.5479-11.0125-1.0149-12.25-1.0378-1.2375-.023-2.25-.4834-2.25-1.0235s-.6459-.7341-1.4354-.4312c-.7895.303-1.5925.08-1.7845-.4964-.192-.576-2.1922-1.0878-4.4449-1.1373-5.1447-.1132-7.4297-2.8362-4.8095-5.7315.9142-1.0102 2.2984-1.5926 3.076-1.2942.7775.2984 2.548-.2007 3.9343-1.109s2.9578-1.3813 3.4922-1.0509c.5345.3303.9718.1641.9718-.3693 0-1.5843 8.3572-5.1482 12.0723-5.1482 3.9129 0 10.0059 1.5605 10.8574 2.7807.938 1.3442 12.0886 5.246 19.3857 6.7834 8.3417 1.7575 11.4441 1.7848 14.6846.129 3.0223-1.5442 2.9418-5.2867-.171-7.9431-1.1278-.9625-1.7502-1.75-1.3831-1.75s.0009-.9517-.8138-2.1148-1.2416-2.7392-.9488-3.5022c.783-2.0405-.5756-6.5676-1.7527-5.8401-.6452.3987-.7627-.3638-.3248-2.1083.3863-1.5394.2947-2.4912-.21-2.1795-.8794.5433-.87-6.9828.023-18.4881.2448-3.1532.1055-5.9429-.3094-6.1993-1.0619-.6563-.4515-12.6257.7028-13.78 1.1664-1.1664 5.1877 1.1225 5.1877 2.9528 0 1.707 1.4823 1.5882 3-.2405 1.6822-2.0269 3.3402-1.8865 5.4664.4629 1.6559 1.8297 1.9792 1.858 4.7651.4174 1.6437-.85 2.7191-1.1093 2.3896-.5762s.042 1.5014.8256 2.1517 1.7144 2.5013 2.0685 4.1133c.4945 2.2515 1.2019 2.9309 3.0517 2.9309 1.7487 0 3.1369 1.1636 5.07 4.25 1.4641 2.3375 3.0448 4.4 3.5126 4.5833.4678.1834.8505.9387.8505 1.6786s.7071 2.0524 1.5714 2.9167 1.3593 1.5714 1.1 1.5714c-.8662 0 6.285 6.7693 7.7418 7.3283 2.0394.7826 4.287-3.1215 5.1304-8.9114.644-4.4219 2.8887-10.4169 3.9003-10.4169 1.511 0 3.5561 1.4288 3.5561 2.4845 0 .6989.6498 1.8099 1.4441 2.4691 1.1601.9628 1.6989.7903 2.7405-.8776 1.4936-2.3916 2.3739-2.5673 4.2207-.8421.9057.8461 1.0689 2.1127.5191 4.0298-.6646 2.3174-.5129 2.748.8869 2.5161.9288-.1539 1.9511-.6348 2.2717-1.0687.3207-.4339 1.8957-.8839 3.5-1 2.7875-.2017 2.904-.045 2.6237 3.5389-.2451 3.1336.023 3.75 1.6276 3.75 1.0564 0 2.433.6171 3.059 1.3714 1.5271 1.8401 4.3349 11.4503 3.663 12.5375-.2938.4754.1055 1.3955.8875 2.0445s1.413 1.9375 1.4021 2.8633c-.011.9258.068 4.5369.1759 8.0245.1104 3.5771-.2876 6.8246-.913 7.45-.6099.6099-1.1088 2.3688-1.1088 3.9088s-.4142 2.8-.9205 2.8-1.2335 1.4249-1.616 3.1664-1.0776 3.654-1.5447 4.25-2.1481 2.6586-3.7357 4.5836c-3.7046 4.4921-3.715 6.9436-.033 7.6801 1.616.3232 2.5409 1.0103 2.1693 1.6116-.4161.6732.026.7896 1.2358.3254 1.0359-.3975 1.5621-.4014 1.1693-.01-1.1581 1.1581 14.3527 10.3915 17.4562 10.3915 1.6951 0 6.819 6.0824 6.819 8.0946 0 1.3898-.7202 1.8805-2.75 1.8735-6.2309-.022-7.178.1063-7.7595 1.0472-.7163 1.1591-.1591 1.2394-8.9905-1.2958zm775.878-7.4695c-1.7186-5.3774-2.2475-5.75-8.1634-5.75-3.143 0-5.9631-.3327-6.2669-.7393s-3.0038-.9824-6-1.2796c-2.9962-.2971-7.5637-1.0167-10.1501-1.599s-5.1541-.7797-5.706-.4386c-.5519.341-2.6532-.069-4.6696-.9117-2.0164-.8425-5.3971-1.5318-7.5126-1.5318-2.6607 0-3.7019-.3854-3.3775-1.25.2579-.6875-.5437-1.7536-1.7814-2.3691-6.7046-3.334-9.1207-4.8318-11.9238-7.3921-1.7007-1.5533-3.7257-2.581-4.5002-2.2838-.8278.3177-1.2883.0005-1.1173-.7695.346-1.558-5.7138-4.8193-9.0815-4.8875-1.927-.039-2.1526-.3129-1.2015-1.459 1.3971-1.6833-.1861-3.0869-2.4864-2.2043-1.1308.434-1.323 0-.8437-1.9113.6057-2.4131-.6766-3.1984-4.096-2.5085-.55.111-.6778-.1205-.2839-.5143.3938-.3939-.4485-1.6322-1.8719-2.7518-2.1591-1.6984-4.4317-2.1038-13.7115-2.4459-6.1178-.2256-11.3374-.6243-11.5991-.8859-.2616-.2617.1863-.9199.9954-1.4628 1.0825-.7263.5427-.922-2.0434-.741-1.9329.1353-4.0704-.098-4.75-.5176-.6796-.42-1.6856-.4855-2.2356-.1456s-1 .1896-1-.334c0-.5237-1.6875-1.652-3.75-2.5075s-3.1717-1.5786-2.4648-1.607c.9592-.038 1.0226-.5422.25-1.9858-1.5433-2.8837-1.2861-3.5512 1.4289-3.7076 1.3544-.078 3.2121-.8915 4.1282-1.8075.9161-.9161 2.3003-1.422 3.0762-1.1243 1.3681.525 5.2294-1.111 6.4168-2.7188.8832-1.1959 9.9198-1.3026 10.7181-.1265.6229.9177 7.8095 3.103 12.4622 3.7897.9711.1433 2.2986.7935 2.95 1.4449s2.0085 1.1844 3.0158 1.1844c1.0072 0 2.0904.675 2.407 1.5.3243.8451 1.813 1.5 3.4096 1.5 1.5587 0 3.0999.4303 3.425.9563s1.2061.7203 1.9579.4319c.7517-.2885 1.6639-.044 2.027.5436 1.3086 2.1174 12.4156.1292 13.5853-2.4318.2513-.55.7463-.9035 1.1002-.7855 1.0647.3549 3.1941-5.7192 3.3628-9.5922.087-1.9923.5365-4.4879.9994-5.5459.6795-1.5531.5193-1.7999-.832-1.2814-1.2569.4823-1.6698.09-1.6583-1.5764.011-1.6205.2464-1.854.8724-.8661.5491.8665 1.0178-.869 1.3042-4.8294.2788-3.8531.9861-6.5288 1.8777-7.1026 1.1944-.7686 1.2065-1.0649.074-1.7955-.8475-.5466-.9766-1.1099-.3438-1.501 1.4057-.8688.2556-4.7657-1.1631-3.9409-.625.3634-.3488-.2396.6137-1.3399.9625-1.1004 1.75-3.1886 1.75-4.6406 0-1.9445.3981-2.4871 1.5113-2.0599 1.0996.422 1.3359.1226.8672-1.0988-.3544-.9234-.1896-2.661.3661-3.8614 1.7547-3.7903 3.4841-12.6486 4.1558-21.2872.7034-9.0469 1.7532-11.1736 4.7422-9.6074 1.0216.5353 3.3826.7989 5.2467.5858 3.8517-.4402 6.1107.9705 6.1107 3.8161 0 1.5692.4347 1.8023 2.25 1.2062 4.8169-1.5817 7.1817-.3614 9.5159 4.9104.6834 1.5435 1.6907 2.5294 2.2384 2.191.5476-.3385 1.0435.1986 1.102 1.1936.059.9949.171 2.5263.25 3.4031.079.8767 1.8805 3.5767 4.0033 6l3.8596 4.4059 3.8904-4.3786c2.1397-2.4082 3.8904-4.9266 3.8904-5.5964 0-2.1957 3.1356-7.5593 4.0785-6.9765.871.5383 1.3537-1.5447.9961-4.2985-.089-.6875.2429-1.25.738-1.25.4952 0 .939-1.2375.9862-2.75.047-1.5125.1868-3.6125.3102-4.6667.272-2.3236 3.9362-6.1742 5.5275-5.8087.6312.1449 1.0837-.5326 1.0056-1.5055-.09-1.1173.5027-1.7179 1.6079-1.6302.9625.076 1.75-.2611 1.75-.75 0-1.5216 2.7537-.9731 3.3859.6745.33.8598 1.0712 1.2721 1.6471.9162.6804-.4205.8249.2386.4125 1.8816-.5486 2.1856-.3166 2.5122 1.7099 2.4069 1.2895-.067 2.7946-.4405 3.3446-.8299.55-.3893 2.125-.2584 3.5.291s2.0029 1.1883 1.3953 1.4198c-1.6903.6439-.4322 5.1081 1.5885 5.6365 1.4794.3869 1.7544 1.4454 1.6047 6.1768-.1311 4.1432.2435 6.0293 1.3654 6.8738 1.7186 1.2937 2.6909 4.1805 1.0709 3.1792-.5637-.3483-1.0248.068-1.0248.9257 0 .8574.45 1.559 1 1.559s1 1.8 1 4c0 3.1128-.3882 4.0175-1.75 4.0789-1.0454.047-1.2467.2821-.5.5834 1.4984.6046 1.6584 4.5293.2424 5.9453-.5542.5542-1.1167 2.7817-1.25 4.95s-.8049 4.537-1.4924 5.2638-1.25 2.385-1.25 3.6849-.5248 3.6303-1.1662 5.1786-1.2228 3.0401-1.2919 3.3151c-.069.275-.9913 2.075-2.0493 4-2.272 4.1341-4.3582 11.2898-4.5188 15.5-.093 2.4371-.256 2.6384-.8693 1.0728-.6378-1.628-1.2488-1.0641-3.9361 3.6328-1.7496 3.058-3.8532 6.1179-4.6748 6.7997-.8215.6818-1.4936 1.886-1.4936 2.6762 0 .7901-.4339 1.1684-.9642.8406-1.2233-.756-6.5635 7.4703-6.1527 9.4779.1689.825-.037 1.1615-.4569.7478-1.0567-1.0405-4.4262 2.1877-4.4262 4.2405 0 2.4471.9204 2.9925 3.4362 2.036 1.6545-.6291 2.2305-.4835 2.2305.5638 0 .7766-.6426 1.4119-1.428 1.4119s.4572 1.575 2.7613 3.5 5.2717 3.5 6.5946 3.5c1.323 0 2.4054.3518 2.4054.7817s2.025 1.3796 4.5 2.1104c2.475.7307 4.5 1.8441 4.5 2.4742 0 1.6511 5.805 4.0977 11 4.6361 1.0432.1082 1.1193.3091.25.6599-.6875.2774-1.25.9434-1.25 1.4801 0 .5366.45.6975 1 .3576s1 .3351 1 1.5-.3493 1.9021-.7762 1.6383c-.427-.2639-3.3371.1155-6.4671.8431-3.1675.7363-7.1463 1.0186-8.9737.6365-3.2125-.6716-6.8663-.7479-15.64-.327-3.374.1619-4.2296.541-3.7925 1.6802.3105.809-.07 2.1055-.8454 2.8809-.7754.7755-1.1313 1.6885-.7908 2.029.3405.3404.08.619-.579.619-.6589 0-1.4498-.7875-1.7574-1.75zm-103.19-46.9331c-.7219-.2889-1.5844-.2534-1.9167.079-.3323.3323.2584.5687 1.3125.5253 1.165-.048 1.4019-.285.6042-.6042zm96.5625 45.8969c-1.5125-.1906-2.75-.7157-2.75-1.1667 0-1.3745 5.9665-1.7924 7.0445-.4935 1.2485 1.5044-.4185 2.1489-4.2945 1.6602zm13.5208.182c.3323-.3323 1.1948-.3678 1.9167-.079.7977.3192.5608.5562-.6042.6042-1.0541.043-1.6448-.193-1.3125-.5253zm4.7292-.2436c0-1.1654 5.8271-1.241 6.5416-.085.3171.5129-1.0251.9326-2.9826.9326-1.9574 0-3.559-.3815-3.559-.8478zm3-3.1522c-1.2927-.8354-1.2663-.9715.191-.9847.93-.01 1.9691.4347 2.309.9847.7822 1.2656-.5416 1.2656-2.5 0zm-61-3.441c0-.2425.45-.7191 1-1.059s1-.1415 1 .441c0 .5824-.45 1.059-1 1.059s-1-.1984-1-.441zm-170.269-12.2149c.677-.274 2.027-.2906 3-.037.9729.2536.419.4777-1.231.4981-1.65.02-2.4461-.1871-1.769-.461zm-1093.23-41.3441c-.3399-.55-.1415-1 .441-1 .5824 0 1.059.45 1.059 1s-.1984 1-.441 1c-.2425 0-.7191-.45-1.059-1zm-6.904-2.6105c-.5881-1.5324-.054-1.6237 2.8504-.4872 1.8746.7336 1.8677.7823-.1854 1.3192-1.3176.3446-2.3355.027-2.665-.832zm-189.096-20.5001c-2.2-.4258-6.2928-.8001-9.095-.8318-3.8119-.043-5.5608-.5722-6.9444-2.1011-1.4944-1.6513-2.9156-2.0042-7.405-1.8386-3.0556.1127-6.8557.6481-8.4446 1.1898-4.0376 1.3764-24.8131-1.0529-30.611-3.5795-2.475-1.0785-6.075-2.6281-8-3.4435s-5.3296-2.338-7.5657-3.3836c-2.2362-1.0456-4.5763-1.9011-5.2003-1.9011-.6241 0-1.4945-.6271-1.9343-1.3937-.956-1.6661-8.7564-6.5797-16.0943-10.1382-2.9121-1.4121-7.2385-4.4577-9.6143-6.7678-4.9658-4.8287-11.8741-8.6733-16.1449-8.9852-1.6204-.1183-3.2097-.5719-3.5317-1.0079s-3.697-1.0553-7.5-1.3761-7.4296-.9923-8.0592-1.4923c-.6296-.4999-1.5296-.8399-2-.7555-1.8558.3331-3.1434-.165-5.3309-2.0621-1.2548-1.0884-3.9112-2.2726-5.903-2.6316-5.0325-.9072-7.1214-2.1556-7.1214-4.2558 0-2.0982 2.9494-3.7338 8.3377-4.6236 2.1108-.3486 5.6075-1.5562 7.7706-2.6837 4.9611-2.5858 16.5871-2.3171 19.6494.4542 1.0475.948 2.1807 1.4476 2.5181 1.1102s1.6957.5543 3.0184 1.9816c1.3228 1.4272 2.7221 2.2778 3.1098 1.8902.3876-.3876 1.0178-.2678 1.4004.2663.8279 1.1557 9.5138 4.2242 17.1956 6.0748 7.1223 1.7158 12.4712 1.7383 13.8654.058 2.2363-2.6946 1.2078-13.1173-1.5091-15.2928-1.7203-1.3775-1.9444-8.374-.4443-13.8694.6006-2.2 1.3214-8.275 1.6017-13.5.5017-9.3484 2.2453-18 3.6277-18 .3876 0 2.0541 1.3494 3.7034 2.9987 1.8563 1.8562 3.5953 2.7697 4.5647 2.3976 1.059-.4063 2.1367.4017 3.3283 2.4951 1.8548 3.2587 2.7435 3.7568 3.7622 2.1086.3399-.55 1.2508-1 2.0242-1 2.2595 0 8.4758 6.0218 8.4758 8.2106 0 1.4041.4666 1.8243 1.5599 1.4048 1.1359-.4359 2.1001.6223 3.5468 3.893 1.0928 2.4704 2.3612 4.4916 2.8188 4.4916.4575 0 1.391 1.35 2.0745 3s1.638 3 2.1213 3 .8787.675.8787 1.5c0 1.9245.2099 1.8987 4.3286-.5314 4.1535-2.4506 8.2248-8.1942 9.1928-12.9686.3902-1.925 1.1463-4.0428 1.6802-4.7062.5338-.6634.7062-1.6339.3831-2.1567-.3348-.5418.3097-.716 1.4986-.4051 1.1473.3 2.2297 1.0456 2.4054 1.6568 1.4238 4.9532 1.1571 4.8325 5.6343 2.5484 3.8596-1.969 4.1054-1.9894 3.3776-.2803-1.1704 2.7488-1.4358 7.4211-.3845 6.7713.5041-.3115.6104-1.0618.2362-1.6672-.4294-.6947-.1023-.879.8865-.4996.8617.3307 2.398-.029 3.414-.7983 2.7718-2.1 4.6759-1.828 4.0467.578-.4258 1.6285-.1625 1.9232 1.3027 1.4582 1.9335-.6137 3.7127 2.535 2.5215 4.4624-.333.5388.012 2.2303.7673 3.7589 1.7579 3.5592 1.2822 14.2692-.8316 18.7237-.8646 1.8221-2.6717 4.346-4.0157 5.6086-1.7926 1.684-2.4437 3.3494-2.4437 6.2501 0 2.9323-.9859 5.4073-3.8146 9.5757-5.4353 8.0096-5.6114 8.822-2.5297 11.678 1.45 1.3438 3.2456 2.4433 3.9903 2.4433s1.354.45 1.354 1 .5945 1 1.3211 1 3.3616 1.9125 5.8556 4.25c6.1049 5.7218 7.6937 6.966 14.2619 11.1676 3.0976 1.9815 5.8848 4.2616 6.1938 5.0668 1.3522 3.5239-5.613 5.8603-13.1324 4.405zm712.579-1.3061c-.043-1.0541.193-1.6448.5253-1.3125s.3678 1.1948.079 1.9167c-.3192.7977-.5562.5608-.6042-.6042zm-45-16c-.043-1.0541.193-1.6448.5253-1.3125s.3678 1.1948.079 1.9167c-.3192.7977-.5562.5608-.6042-.6042zm790.153-20.5833c0-1.925.2058-2.7125.4573-1.75.2516.9625.2516 2.5375 0 3.5-.2515.9625-.4573.175-.4573-1.75zm.02-8.5c-.011-2.2.1846-3.2177.4349-2.2617.2503.9561.2594 2.7561.02 4-.2392 1.244-.444.4617-.4551-1.7383zm-1841.75-28.5305c-2.75-.4119-8.07886-1.2902-11.8421-1.9518-3.76315-.6615-7.70065-.9783-8.75-.7039-1.04934.2744-1.9079.039-1.9079-.5241 0-.5626-.9-.7876-2-.5-1.1.2877-2 .1764-2-.2473 0-.4236-3.32986-.8475-7.39969-.9418-4.06983-.094-10.4823-1.0827-14.25-2.1961-3.76767-1.1135-8.43201-2.3678-10.3652-2.7873-4.90276-1.0638-17.8536-6.0954-18.5376-7.2021-.31105-.5033-1.46233-.9151-2.55841-.9151-2.0806 0-10.1437-3.9479-10.7224-5.25-.18334-.4125-.75093-.75-1.26131-.75-.51039 0-3.59062-1.8175-6.84497-4.0389s-8.60574-5.4839-11.892-7.25c-5.48887-2.9498-8.71434-5.3541-17.4073-12.9752-1.73405-1.5202-4.86468-3.5193-6.95695-4.4424-2.09228-.9231-3.80414-2.0418-3.80414-2.4859 0-.4442-.81-.8076-1.8-.8076s-2.2275-.4128-2.75-.9173c-.96981-.9364-5.96009-2.1265-10.45-2.4921-1.375-.1119-3.85-.4959-5.5-.8532s-6.11106-.918-9.91346-1.2458c-3.80241-.3279-7.85241-1.1049-9-1.7267-1.1476-.6218-3.31333-1.042-4.81275-.9337-3.40078.2457-7.77379-3.3841-7.77379-6.4525 0-2.8156.94342-3.4088 6.26327-3.9381 2.32657-.2314 4.36569-.8275 4.53137-1.3245.16569-.4971 1.24697-.6565 2.40285-.3542 1.37314.3591 2.58006-.1048 3.48199-1.3382 2.1777-2.9782 14.2767-3.2393 23.2869-.5025 3.86847 1.175 7.03359 2.5734 7.03359 3.1076s.675.9712 1.5.9712 1.5.3649 1.5.811c0 .446 2.3625 1.3986 5.25 2.117s6.6 1.8665 8.25 2.5515c8.8701 3.6823 18.4337 4.0384 24.6309.9173 3.39575-1.7102 7.17632-6.2303 8.79369-10.5139.7025-1.8606 1.64427-4.2829 2.09282-5.3829 1.94347-4.766 2.98261-12.0355 2.98261-20.8653v-9.4796l5.23282-4.5776c2.87806-2.5176 5.812-4.5775 6.51988-4.5775 1.54291 0 8.75877-4.4559 11.6688-7.2056 1.1432-1.0803 3.42855-2.6662 5.07855-3.5243s5.61932-3.2949 8.82071-5.4151c3.2014-2.1203 6.4639-3.855 7.25-3.855.78611 0 1.42929-.45 1.42929-1s.9-1 2-1 2-.45 2-1 .74092-1 1.64649-1c.90558 0 3.94308-1.5103 6.75-3.3562 2.80693-1.846 8.24647-4.8443 12.0879-6.663s7.61047-3.9328 8.37572-4.698c.76525-.7653 2.57228-1.2545 4.01558-1.0871 2.7228.3157 3.2522 2.279 1.6407 6.0851-1.4816 3.4993 8.4971.728 20.4836-5.6886 1.375-.7361 4.75-2.408 7.5-3.7153s5.27-2.7442 5.6-3.1932c.3299-.4489 2.3549-1.4196 4.5-2.157 2.145-.7374 3.9-1.9076 3.9-2.6004s.675-1.4096 1.5-1.593c.825-.1833.9656-.08.3125.2292-.8189.3879-.5621 1.1879.8273 2.5773 1.1082 1.1082 1.7692 2.655 1.4689 3.4375s0 1.4543.6727 1.493c.6702.039.3186.457-.7814.9297-1.7723.7616-1.6868.8674.75.9297 2.2479.058 2.75.5267 2.75 2.5703 0 1.375-.861 3.361-1.9133 4.4133-1.8845 1.8845-1.8807 1.9216.25 2.4566 1.1898.2988 3.0042 1.1583 4.0321 1.9101 1.6395 1.1992 1.702 1.6338.5094 3.5434-.7476 1.1971-1.926 2.1766-2.6187 2.1766s-1.2595.45-1.2595 1 1.0125 1.0143 2.25 1.0318c2.7046.038 5.7258 2.1578 5.8134 4.0784.035.7644.4484.4367.9189-.7281.7452-1.8449 6.0342-4.0907 5.8499-2.484-.038.331.036 1.0519.1647 1.6019.1286.55.2944 1.675.3684 2.5s.681 1.3929 1.3487 1.262c.7593-.1489.9767.413.5804 1.5-.5712 1.5671-.4238 1.554 1.4988-.1333 3.0229-2.6528 4.7121-1.5578 7.8196 5.0692 1.4964 3.1912 2.9832 6.0271 3.304 6.3021.3207.275.6562.95.7454 1.5.7165 4.4183 3.7633 14.4319 4.953 16.2782.8073 1.2531 1.1855 2.7353.8403 3.2939-.3452.5585-.1416 1.6012.4525 2.3171.5941.7158 1.3441 3.7336 1.6666 6.7061.3225 2.9726.9233 5.7553 1.3351 6.1839 1.5832 1.6476 10.7186-8.7531 11.5697-13.1721.6563-3.4081 3.4187-5.6668 5.377-4.3965.904.5864 1.5811 1.7914 1.5047 2.6778-.1749 2.0297-.1865 2.0311 4.0817-.4872l3.5572-2.0988v2.6578c0 1.4618.4189 2.3989.9309 2.0825s1.2298-.092 1.5952.4995c.3944.6382 1.8953.8045 3.6942.4094 2.1603-.4745 2.8258-.3352 2.3187.4853-.3911.6329-.1696 1.8032.4923 2.6008 2.3508 2.8326 1.2365 20.8785-1.5521 25.1344-.9014 1.3758-1.4155 2.7249-1.1424 2.998s-.2535 1.3268-1.1701 2.3416c-3.4856 3.8584-4.1667 4.9576-4.1667 6.7239 0 1.0009-.9191 2.6069-2.0425 3.5688-1.1235.9619-1.7289 2.2564-1.3455 2.8768.4264.6899.248.8503-.4594.4131-.7036-.4348-1.5374.2877-2.1297 1.8455-.5354 1.4081-1.547 2.5792-2.2481 2.6025-.7012.023-2.2177 1.5248-3.3702 3.3366l-2.0955 3.2942 3.0955 2.0936c1.7025 1.1514 4.3329 2.6472 5.8454 3.3239 1.5125.6768 2.75 1.536 2.75 1.9094 0 .9083 4.9638 3.2246 7.6439 3.567 1.1791.1507 4.0589 1.5472 6.3996 3.1035 2.3406 1.5562 4.969 3.2795 5.8409 3.8295 1.9259 1.2149 4.3545 4.2863 5.3521 6.7687.4886 1.2158.3684 1.6052-.3571 1.1568-.7109-.4394-.8813-.01-.4867 1.2365.4622 1.4562.092 1.9512-1.5529 2.0751-1.1879.09-2.5309.7478-2.9845 1.4628-.4831.7616-.831.8444-.84.1998-.01-.6426-2.4075-1.201-5.7653-1.3423-3.1625-.133-7.55-.4357-9.75-.6725-2.2-.2369-13-.8325-24-1.3235-13.5352-.6042-21.4546-1.4002-24.5-2.4626-2.475-.8633-5.175-1.5783-6-1.5888-1.9234-.025-17.1959-5.9035-18.45-7.1021-.5225-.4993-1.7049-.9079-2.6276-.9079-.9226 0-2.2421-.6802-2.9321-1.5116s-3.1501-2.3502-5.467-3.3751-5.07-2.7679-6.1179-3.8734c-1.048-1.1055-3.4804-2.8589-5.4054-3.8964s-6.2621-4.5768-9.6381-7.865c-8.6727-8.4472-11.1696-10.3992-14.2004-11.1016-1.46376-.3392-3.21591-1.3128-3.89357-2.1635-1.54332-1.9374-7.14131-2.0247-8.34055-.1301-.4932.7792-.93784.9667-.98811.4167-.0503-.55-.64878.35-1.33003 2-3.43486 8.3192-5.28501 11.4367-7.06553 11.9056-1.07598.2833-1.65762.8138-1.29252 1.1789.36509.3651-.25862 1.4107-1.38601 2.3236-1.1274.9129-2.12076 2.8389-2.20748 4.2799-.0867 1.4411-.49516 2.4117-.90766 2.157s-.75.1909-.75.9902c0 2.152 5.51366 7.6648 7.66602 7.6648 1.02498 0 3.43193.8306 5.34879 1.8458 2.28018 1.2076 4.7717 1.6896 7.2061 1.394 3.14657-.3821 4.20035.028 6.82685 2.6542 1.7083 1.7083 3.3286 3.106 3.6006 3.106.9497 0 3.7772 3.2922 3.973 4.6259.2788 1.8996 3.8682 7.5313 6.8525 10.7515 1.3894 1.4991 2.5261 3.8275 2.5261 5.1741 0 2.6971-.481 2.7689-9.5 1.418zm27.5-68.7589c1.375-.2926 2.9794-1.1832 3.5653-1.979 1.4874-2.0201.8842-14.1412-.9764-19.6214-1.6629-4.8981-1.228-9.8349 1.0316-11.7102.7587-.6297 1.3795-1.6609 1.3795-2.2915s1.9704-5.188 4.3787-10.1276c2.4083-4.9395 4.6986-10.7809 5.0895-12.9809s1.0592-4.45 1.485-5 .7605-2.4196.7438-4.1547c-.022-2.3006-.4131-3.0077-1.4442-2.6121-.7777.2985-1.2036 1.3469-.9466 2.3299.3194 1.2211.028 1.6187-.9194 1.2551-.916-.3515-1.3868.1938-1.3868 1.6062 0 1.1761-.7009 2.4073-1.5575 2.736s-1.3295 1.1917-1.0509 1.9177c.3221.8394-.021 1.1176-.9425.764-.797-.3059-1.4491-.058-1.4491.5509s-.3375.9999-.75.8689c-.9145-.2903-7.6286 6.3602-9.8615 9.7679-.8902 1.3586-2.0489 2.4702-2.5749 2.4702-1.1676 0-3.8112 2.5459-3.8199 3.6786-.01.7868-3.6705 3.2421-8.9937 6.0262-1.375.7191-3.4 2.6534-4.5 4.2985-1.1 1.645-2.3143 2.9922-2.6985 2.9938-2.789.011-11.2012 13.7977-10.1271 16.5967.30234.7879 3.53678 2.8891 7.18758 4.6694 3.6509 1.7802 6.788 3.5743 6.9713 3.9868.1834.4125 1.0139.75 1.8457.75.8317 0 2.7306.8676 4.2197 1.9279 2.6879 1.9139 9.2252 3.1397 12.1013 2.269.825-.2497 2.625-.6936 4-.9863zm85.4252-34.3317c-.6481-1.0486-2.4252-.2068-2.4252 1.1487 0 .5003.6724.6516 1.4943.3362.8218-.3153 1.2407-.9836.9309-1.4849zm244.575 83.1801c0-.5824.45-1.059 1-1.059s1 .1984 1 .441c0 .2425-.45.7191-1 1.059s-1 .1415-1-.441zm125.822-31.5389c-.3418-4.1044-2.3012-5.8467-3.1776-2.8254-.288.9929-.2806-2.0358.016-6.7304.4011-6.3377.084-10.329-1.2308-15.5-.9741-3.8304-1.6937-8.1151-1.5993-9.5215.3803-5.6613-3.1318-7.043-20.9973-8.261-1.4666-.1-2.4638-.3846-2.216-.6324.5246-.5246-13.4191-5.0483-15.5626-5.049-.7949-.0002-2.7287 1.2292-4.2973 2.732-2.2528 2.1583-3.0297 2.4451-3.6972 1.3649-.6716-1.0866-1.0655-.9559-1.9175.6361-.5898 1.102-.7882 2.2878-.4408 2.6351.3473.3473-.01.6415-.7852.6537-.7792.012-2.4966.8525-3.8164 1.8673-1.3199 1.0147-3.2324 1.6272-4.25 1.3611-1.0177-.2661-1.8503.0004-1.8503.5923 0 1.1894-5.0344 6.1571-6.2398 6.1571-.4181 0-.7602-.675-.7602-1.5 0-2.5023-1.2999-1.7304-5.909 3.509-2.4235 2.7549-4.6729 4.7426-4.9987 4.417-.7509-.7505-.8705-5.4258-.1388-5.4267.3006-.0004.6183-1.2368.7061-2.7475l.1596-2.7468-1.7854 2.205c-.9821 1.2127-2.0023 1.9882-2.2672 1.7233s-1.0508.2042-1.7465 1.0425c-1.8479 2.2266-2.8283 1.8677-2.6643-.9751.079-1.3746.4067-2.4996.7275-2.5.3209-.0004.5834-.6951.5834-1.5437 0-.939-.5692-1.3247-1.4539-.9852-1.0224.3924-1.3059.034-.9552-1.2069.2742-.9707.6659-2.4399.8705-3.2649.2045-.825.6315-1.725.9488-2 .6804-.5897 2.6657-6.767 6.563-20.4214 2.1243-7.4421 2.5186-10.0258 1.5782-10.3392-.6896-.2299-1.8886-1.0528-2.6645-1.8287s-2.1179-1.4107-2.9822-1.4107-1.5714-.3399-1.5714-.7553c0-.7686-.8402-1.1092-13.936-5.6483-6.473-2.2437-18.7884-4.0934-25.814-3.8772-1.2375.038-2.25-.3597-2.25-.884s-.5003-.644-1.1118-.2661-1.4346.1649-1.829-.4734c-.3945-.6383-2.9317-1.4285-5.6382-1.756-5.8687-.7102-9.421-1.9344-9.421-3.2469 0-1.4346 5.3147-4.873 6.75-4.3669.6875.2424 1.25-.1217 1.25-.8092s.2892-.9608.6426-.6074c.3535.3535 3.5587-.9598 7.1228-2.9183 10.5192-5.7803 19.0185-5.7274 30.382.1892 2.556 1.3309 5.3685 2.4198 6.25 2.4198.8814 0 1.6026.3627 1.6026.8061 0 1.2253 17.8328 4.3868 19.4956 3.4563 3.1063-1.7384 9.3813-16.4087 9.3085-21.7624-.067-4.9125 1.3492-11.9468 2.5635-12.7347 2.3337-1.5141 7.8098-.6774 12.6397 1.9312 2.746 1.483 4.9927 3.058 4.9927 3.5 0 .4419.4977.8035 1.1061.8035.6083 0 2.7458 1.2849 4.75 2.8553 6.4017 5.0163 7.8042 5.4585 11.1129 3.5039 2.868-1.6941 3.0452-1.6694 8.2311 1.1514 5.4064 2.9407 6.6018 3.763 9.5979 6.6023.9361.8871 2.2228 1.7871 2.8593 2 2.5477.8521 27.3427 23.6793 27.3427 25.1727 0 .2436 2.1934 2.6712 4.8742 5.3946s5.1882 5.9411 5.572 7.1503 1.0865 1.9583 1.5615 1.6647c1.1214-.693-.6976 5.6836-1.8355 6.4345-.4753.3137-1.1671 1.8078-1.5373 3.3203-.3701 1.5125-1.3394 2.75-2.154 2.75-.8145 0-1.4761.3375-1.4702.75.017 1.1668 8.6526 10.25 9.7454 10.25.5351 0 2.4964 1.3428 4.3584 2.984s3.723 2.9912 4.1355 3c1.0672.023.9349 3.016-.1334 3.016-.4858 0-1.1111.8709-1.3894 1.9353-.3735 1.428-1.1249 1.805-2.8667 1.4384-6.3383-1.3342-11.5523-2.6329-13.3605-3.3279-3.5748-1.3739-9.1186-3.0458-10.0999-3.0458-1.0106 0-3.7775 16.4921-3.581 21.3444.08 1.9654-.2899 2.6889-1.1958 2.3413-.9351-.3589-1.19.2592-.8889 2.1556.3319 2.0904.195 2.3381-.6408 1.1587-.8289-1.1697-1.0924-.6193-1.1966 2.5-.1293 3.8689-.1586 3.9017-.897 1l-.7634-3-.1183 2.809c-.067 1.5951-.5504 2.542-1.1183 2.191-.599-.3702-1.0061.9095-1.0153 3.191-.022 5.5205-1.7505 7.7812-2.1628 2.8291zm-1.2177-15.2493c-.3323-.3323-.5687.2584-.5253 1.3125.048 1.165.285 1.4019.6042.6042.2889-.7219.2534-1.5844-.079-1.9167zm-3.6042 15.7292c0-.55.45-1 1-1s1 .45 1 1-.45 1-1 1-1-.45-1-1zm3.1579-2c0-1.375.227-1.9375.5044-1.25s.2774 1.8125 0 2.5-.5044.125-.5044-1.25zm-912.237-54.25c-.0434-1.2375-.28999-1.7353-.54794-1.1062-.25795.6292-1.29664.9275-2.3082.6629-1.01155-.2645-2.14154.01-2.51107.6062-1.14808 1.8576-4.03193 1.1957-5.06671-1.1629-.54292-1.2375-1.99963-2.3938-3.23713-2.5696-1.2375-.1757-2.25-.682-2.25-1.125 0-.4429-.29524-2.2816-.6561-4.0859-.42945-2.1473-.29991-3.0603.375-2.6432.60311.3727 1.0311-.4005 1.0311-1.8628 0-2.9597-1.50947-4.2539-2.36405-2.0269-.32996.8599-1.20022 1.5634-1.93392 1.5634s-1.65508.5195-2.04752 1.1545c-.48001.7767-.25387.8878.69098.3397.78269-.4541 1.05572-.432.6167.05-.4333.4756-1.89828 1.0135-3.25552 1.1952-1.84223.2467-2.75843-.3076-3.61473-2.187-1.02465-2.2488-1.27461-2.3429-2.34278-.8821-.65766.8994-1.68292 1.3342-2.27836.9662-.59543-.368-1.36526-.2118-1.71072.3472s-1.50156 1.0163-2.5691 1.0163c-1.40371 0-1.94098-.692-1.94098-2.5 0-1.375-.47656-2.5-1.05902-2.5s-.73793-.5195-.34549-1.1545c.44208-.7153.27432-.8831-.44098-.441-.63498.3924-1.19004 1.4745-1.23346 2.4045-.0486 1.0412-.27277 1.2106-.58333.441-.27741-.6875-1.14189-1.25-1.92105-1.25-1.86179 0-1.82795-4.0732.0917-11.0321 1.59938-5.798 5.17136-21.7743 5.8059-25.9679.20805-1.375.6374-3.175.95411-4s.85357-3.173 1.19303-5.2179c.33946-2.0448 1.27452-4.3751 2.07791-5.1785.8034-.8034 1.46349-2.7304 1.46688-4.2822.003-1.5518.62913-4.0154 1.39054-5.4747.76142-1.4594 1.91733-4.2682 2.56871-6.2419 1.02951-3.1194 2.61074-6.3835 7.31733-15.1048.59364-1.1 1.22638-3.125 1.40609-4.5.52544-4.0201.83288-5.4365 1.41089-6.5 1.02936-1.894.87589-6.5-.21657-6.5-.60194 0-2.45991-1.149-4.12881-2.5533-1.78557-1.5024-3.68443-2.3038-4.61388-1.9471-.86872.3334-1.29268.3193-.94213-.031.95548-.9554-2.30977-4.3628-3.67782-3.8378-.65196.2502-3.17328-.056-5.60294-.6803s-6.21757-1.245-8.41757-1.3793c-11.097-.6771-11.2199-.6998-8.5-1.5709 2.49634-.7995.3781-1.0454-12.1774-1.4137-2.0226-.059-4.03389-.4643-4.46952-.8999-.43564-.4357.0942-.5359 1.17745-.2228 1.08324.3132.16952-.344-2.03048-1.4604-2.24894-1.1412-5.12879-1.8311-6.57853-1.5758-2.61703.4608-4.87382-1.2549-6.20141-4.7145-.95365-2.4852 2.55221-5.2585 6.99672-5.5349 2.08077-.1293 5.35822-1.0098 7.28322-1.9566 5.42584-2.6686 19.1085-2.382 25.2391.5286 2.60651 1.2375 6.06186 2.25 7.67857 2.25s3.61447.675 4.43947 1.5c1.20011 1.2001 4.50138 1.5 16.5124 1.5 8.92959 0 15.2628-.4052 15.6304-1 .34496-.5582 5.01038-1 10.559-1 5.96065 0 9.94098.4004 9.94098 1 0 .55.93575 1 2.07944 1 2.1294 0 12.2725 3.6701 19.4206 7.027 2.2 1.0332 6.925 3.0753 10.5 4.5381 3.575 1.4629 6.725 2.9655 7 3.3392.275.3738 2.4125 1.2952 4.75 2.0477s4.25 1.7461 4.25 2.2081c0 .4619.82156.8399 1.82569.8399 1.00412 0 2.86954 1.1111 4.14536 2.4692 1.27582 1.358 2.62738 2.279 3.00346 2.0466.94288-.5828 12.22 5.4384 13.8496 7.3946 1.01616 1.2199 1.14281 1.2407.54451.09-.42881-.825.67866-.2782 2.46103 1.2151 1.78237 1.4932 5.55658 3.8782 8.38712 5.2999 5.40803 2.7163 10.1725 7.046 9.30257 8.4536-1.03018 1.6669-10.2973 3.0711-21.7685 3.2985-8.89603.1763-11.7494.5508-11.75 1.5419-.00047.72-.45085 1.0309-1.00085.691s-1-.1718-1 .3736-.90653 1.2793-2.01452 1.631-1.7543 1.0604-1.43624 1.5751c.58246.9424-2.27859 4.4203-3.63634 4.4203-.40147 0-3.1888 2.5387-6.19406 5.6415-5.58784 5.7693-8.71884 10.7777-8.71884 13.947 0 .9797-.52217 3.0481-1.16037 4.5964s-1.05811 3.4228-.93312 4.1655c.12499.7426-.25284 1.0536-.83963.6909-1.0482-.6478-1.48447.6429-1.11848 3.3091.11477.836-.28569 1.0592-1.05146.5859-.86992-.5376-1.04148-.2554-.57833.9516.39113 1.0193.25712 1.4679-.33006 1.105-.5437-.336-.98855-.2192-.98855.2595 0 .4788-.94525 1.8851-2.10055 3.1252-1.1553 1.24-1.8678 2.4874-1.58333 2.7718.52263.5227-.0895 1.3489-5.13819 6.9356-1.53336 1.6967-2.58907 3.7217-2.34603 4.5.24305.7782.11727 1.1145-.27951.7472-.39678-.3674-1.57385.062-2.6157.954-1.42868 1.2233-1.59225 1.8337-.66549 2.4834.75621.5301.36346.618-1.0212.2285-1.67048-.4699-2.25-.214-2.25.9935 0 .8946-.38549 1.3882-.85664 1.097s-2.83365 2.3666-5.25 5.9061c-2.41635 3.5396-4.84584 6.3412-5.39888 6.2259-1.2089-.252-5.49448 3.8658-5.49448 5.2794 0 .55-.47656 1-1.05902 1s-.7809-.45-.44098-1 .14148-1-.44098-1-1.05902.5904-1.05902 1.3119c0 1.6115-5.34615 5.6881-7.45951 5.6881-.90749 0-1.57293-.9245-1.61944-2.25zm515.158-3.1667c-.043-1.0541.193-1.6448.5253-1.3125s.3678 1.1948.079 1.9167c-.3192.7977-.5562.5608-.6042-.6042zm-548.079-8.5833c0-.55.19844-1 .44098-1s.7191.45 1.05902 1 .14148 1-.44098 1-1.05902-.45-1.05902-1zm-409.735-65.8153c-.77982-.4953-1.08195-2.3277-.81923-4.9685.47728-4.7975-.89214-6.5564-1.91905-2.4649-.77379 3.083-2.3071 5.2487-3.71611 5.2487-.51972 0-.71361-.7875-.43088-1.75 1.73045-5.8908 1.73038-8.9975-.00022-10.7281-1.71439-1.7144-1.69769-1.7578.41757-1.0864 2.06918.6567 2.19873.4059 2.12728-4.1181l-.0761-4.8174-1.42531 3.5-1.42532 3.5.3282-3.25c.37712-3.7343-.96078-4.3175-2.29425-1-.86932 2.1628-.90684 2.1434-.96777-.5-.0466-2.0214-.57118-2.75-1.98006-2.75-1.05416 0-2.14364.5625-2.42105 1.25-.40351 1-.52017 1-.58333 0-.0862-1.3641-3.07895-1.7723-3.07895-.42 0 .4566-1.575.7778-3.5.7139-1.925-.064-3.5.2085-3.5.6053 0 .3967-1.51491 1.2691-3.36647 1.9387-2.42926.8784-3.2402 1.7002-2.91289 2.9518.24948.954-.0356 2.0369-.63352 2.4065-.59792.3695-1.08712 1.5718-1.08712 2.6718 0 1.1638-.44661 1.724-1.06817 1.3399-.5875-.3631-.81395-1.3227-.50323-2.1324.35078-.9141-.55184-.5915-2.3809.8511-1.62022 1.2779-3.2241 3.1109-3.56416 4.0734-.34007.9625-1.09308 1.75-1.67336 1.75-.62573 0-.50359-.7121.30015-1.75 1.12754-1.456.98408-1.4336-.85397.1336-1.21505 1.0361-1.92527 2.3431-1.57826 2.9046.36966.5981.1347.7141-.56739.2802-.65907-.4073-1.84787-.2015-2.64177.4574s-2.14826.9275-3.00967.5969c-.88016-.3377-2.50145.2703-3.7013 1.3882-3.33121 3.1035-5.11252 2.5988-4.45063-1.2609.30653-1.7875.32528-2.6875.04167-2-.28362.6875-.95473 1.25-1.49135 1.25s-.65031-.5265-.25262-1.1699c.50952-.8245.15777-.9386-1.19098-.3866-4.80679 1.9674-5.78533 1.9609-4.96926-.033 1.57145-3.839 1.87899-5.7288.82643-5.0783-.57411.3548-1.27384-.2344-1.55496-1.3095-.28112-1.075-.05103-1.8574.51131-1.7387s1.45652-1.1342 1.98707-2.7842 1.5646-4.35 2.29789-6 1.63567-4.35 2.0053-6 1.35287-4.8795 2.18499-7.1767c1.15181-3.1798 1.23721-4.4926.35777-5.5-.63534-.7278-1.97186-2.8983-2.97004-4.8233-1.05745-2.0393-2.70708-3.6334-3.9527-3.8196-1.17579-.1755-2.13782-.9401-2.13782-1.6989 0-.7587-1.50498-2.5274-3.34439-3.9304-3.40375-2.5962-5.65561-3.2601-5.65561-1.6675 0 .4859-1.125 1.0985-2.5 1.3614-1.57854.3017-2.5.021-2.5-.761 0-.6814-.675-1.7991-1.5-2.4838-1.94021-1.6102-1.94021-3.3829 0-2.6384.825.3166 1.5.1398 1.5-.393 0-1.0376-1.87985-1.2805-9-1.1629-2.475.041-3.6-.1983-2.5-.5314s-4.525-1.3701-12.5-2.3043-15.3613-2.0611-16.414-2.5042c-1.34577-.5665-1.70147-.4617-1.19806.3528.46458.7517.18216.9536-.80434.5751-.83618-.3209-1.42205-1.034-1.30194-1.5847.12011-.5506-.81693-1.4019-2.08231-1.8916-1.34947-.5223-2.07244-.5211-1.74862 0 1.13532 1.837-3.56942-.2516-4.9244-2.1861-1.2633-1.8036-1.1424-2.3709 1.14441-5.369 2.32865-3.053 2.89859-3.2977 6.38367-2.7404 2.84972.4557 4.67167.1036 7.13618-1.379 4.2842-2.5773 9.94394-3.2995 16.8094-2.1448 3.025.5088 8.42092 1.1978 11.9909 1.5312s8.90788 1.6751 11.8619 2.9815c4.48328 1.9828 7.12926 2.3923 16.0091 2.4779 14.5416.1402 14.3579.186 13.574-3.3833-.42373-1.9292-.28974-2.7359.38516-2.3188 1.45186.8973 2.04446-1.618 2.65844-11.2838.67514-10.6287 1.34451-11.2535 11.3352-10.5802 4.19004.2824 7.07817.1102 6.76101-.4029-1.07045-1.7321 2.40536-3.3344 6.4055-2.9529 2.21034.2108 4.01881.016 4.01881-.4321 0-.4485.98485.1021 2.18856 1.2235 1.20371 1.1215 2.488 2.039 2.85398 2.039s1.87786 1.1237 3.35973 2.497c1.48187 1.3734 4.58508 3.3724 6.89602 4.4424 2.31094 1.0699 5.41957 3.0963 6.90807 4.503 1.48849 1.4067 3.19011 2.5576 3.78138 2.5576s1.33405.675 1.65063 1.5c.31659.825 1.42746 1.5 2.46862 1.5 1.04115 0 1.89301.675 1.89301 1.5s.5625 1.503 1.25 1.5067c.6875 0 3.86302 2.6815 7.05672 5.9506 3.1937 3.2692 6.6812 6.2215 7.75 6.5607s1.94328 1.2615 1.94328 2.0494.45 1.4326 1 1.4326c1.58017 0 8.97945 7.8158 10.0399 10.605.52804 1.3889.96007 4.9536.96007 7.9217 0 5.0397.29622 5.7013 4.48011 10.0062 2.68583 2.7635 4.95045 4.319 5.65451 3.8839.64982-.4016.90937-.297.58106.2342-.32634.5281.95413 1.7934 2.84549 2.812s3.43883 2.2545 3.43883 2.7465 1.31392 1.3526 2.91983 1.9124c3.29422 1.1484 4.54944 3.2661 2.77073 4.6747-2.09923 1.6623-8.61059 3.3709-9.87308 2.5906-.67189-.4153-4.61819-.8939-8.76955-1.0636s-8.56043-.5455-9.79793-.8351c-1.32022-.309-2.25-.058-2.25.6075 0 .7299-.83855.5846-2.353-.4077-1.86029-1.2189-3.24899-1.3404-6.63197-.5803-2.35344.5287-4.52057.7198-4.81585.4245s-1.3609.2089-2.36803 1.1203-1.83115 1.3466-1.83115.967-.9-.2085-2 .3802-2 1.9334-2 2.9881c0 2.2242-2.02146 7.0119-2.96052 7.0119-.35171 0-1.1141-.4746-1.6942-1.0547-.73962-.7396-1.42854.2804-2.30602 3.4145-.68821 2.458-2.5547 5.7179-4.14775 7.2441-2.11966 2.0308-2.56055 2.9883-1.64398 3.5702.68886.4374.80247.7953.25247.7953s-1.55595-.3531-2.23544-.7847zm396.235-133.177c-9.87599-2.6501-14.9935-3.1506-36.7843-3.5978-10.5686-.2168-20.7907-.6273-22.7157-.9121-7.52245-1.1128-10-1.7598-10-2.6116 0-.4876-1.125-.8865-2.5-.8865s-2.5-.45-2.5-1-1.39303-1-3.09563-1-4.31626-.8692-5.80815-1.9315c-4.80297-3.42-14.4746-8.0685-16.7873-8.0685-1.70715 0-2.09841-.42-1.6304-1.75.50269-1.4286.36835-1.5204-.73138-.5-1.43851 1.3347-6.38475 1.767-5.59487.489.93614-1.5147-1.95565-3.9363-6.85231-5.7381-2.75-1.0119-5.77074-2.4932-6.71275-3.2916-.94202-.7985-2.43712-1.1739-3.32245-.8342-1.87966.7213-5.76402-1.0819-4.99855-2.3205.63478-1.0271-2.29191-2.2804-3.53342-1.5131-.48768.3014-2.58457.095-4.65976-.459-2.07519-.5538-11.3106-1.078-20.5231-1.1649-9.91683-.093-16.75-.5492-16.75-1.1172 0-.5276-1.2375-.694-2.75-.3698-2.91707.6253-9.25-2.4469-9.25-4.4873 0-2.468 4.98119-5.4264 10.7885-6.4076 2.31634-.3913 4.21154-1.2709 4.21154-1.9546s1.10964-1.837 2.46587-2.5628c1.35623-.7259 2.28927-1.6055 2.07342-1.9547-.94368-1.5269 24.4684-1.3193 33.5947.2744 4.62713.8081 9.74756 1.0575 13 .6331 3.86495-.5042 5.91775-.3184 7.33849.6644 2.51253 1.7381 5.96238 1.7503 7.39317.026.61081-.7359 2.91773-1.8795 5.12649-2.5413 5.3699-1.6089 6.83684-4.2219 6.62128-11.7943-.0967-3.3955.17577-5.9565.6054-5.6909 1.56112.9648.82436-14.2414-.85292-17.6036-1.51881-3.0445-1.50967-3.9364.12957-12.645 1.24514-6.6149 1.45519-9.7412.71448-10.6337-1.39148-1.6766-2.03739-18.7534-.70998-18.7706.55-.01.3798-.4059-.37822-.886-1.16328-.7368-1.1321-1.7091.19988-6.2347.86796-2.9489 2.54324-10.8464 3.72285-17.55 1.17961-6.7035 2.77375-13.0035 3.54254-14 1.31712-1.7071 1.55697-1.6236 4.15538 1.4473 1.51666 1.7925 3.70033 3.255 4.85258 3.25 2.18908-.01 4.66339 2.2571 5.72161 5.241.39106 1.1027 1.65715 1.75 3.42303 1.75 1.67985 0 3.79541 1.0146 5.28138 2.533 1.36343 1.3931 3.26647 3.2931 4.22897 4.2222s1.75 2.4326 1.75 3.3411 2.22758 3.8127 4.95018 6.4539c2.72259 2.6411 4.72104 5.1728 4.44098 5.6259s-.0109.8239.5981.8239c.60901 0 1.64968 1.2375 2.3126 2.75 1.94601 4.4399 4.82773 8.25 6.23983 8.25.72141 0 1.45716.6717 1.63499 1.4926.72982 3.3693 9.39551-13.5253 10.0633-19.6193.14303-1.3053.85581-3.0012 1.58395-3.7686 1.06493-1.1224 1.07513-1.5491.0521-2.1813-.86879-.537-.38294-1.0091 1.53345-1.49 3.00734-.7548 4.54704.5494 4.5752 3.8756.008.995.46531 1.5309 1.01531 1.191s1 .3351 1 1.5-.44485 1.8431-.98855 1.5071c-.56686-.3504-.7345.051-.39301.941.8113 2.1142 1.06881 2.0178 4.42504-1.6569 2.85342-3.124 2.96983-3.157 4.41183-1.25.8146 1.0774 1.49539 3.1831 1.51289 4.6794.0303 2.5967.21385 2.6951 4.02921 2.1615 3.07996-.4308 4.13681-.1959 4.60479 1.0236.33405.8706.98298 1.3507 1.44206 1.0669.45909-.2837.77398.2903.69976 1.2755-.0742.9853 1.30032 4.7375 3.05453 8.3384 1.75421 3.6008 3.47933 8.7669 3.83361 11.4802s.96297 5.3833 1.35266 5.9333.80648 3.5084.92621 6.5741c.15775 4.0395-.21301 5.9316-1.34668 6.8725-1.85721 1.5413-2.05 5.1677-.36435 6.8534.66.66.75702 1.2.21561 1.2-1.58509 0-4.09205 5.1442-4.81288 9.8759-.36665 2.4068-2.00226 8.4289-3.63468 13.3824-1.63243 4.9536-2.96805 9.847-2.96805 10.8741 0 1.0272-.675 1.8676-1.5 1.8676s-1.5.7016-1.5 1.559c0 .8853-.47846 1.2633-1.10713.8748-.72614-.4488-.89886-.028-.50189 1.2227.42915 1.3521-.39914 2.8543-2.84693 5.1632-2.06714 1.9497-3.22589 3.8458-2.88816 4.7259.31021.8084-.17084 2.5914-1.06899 3.9621-.94884 1.4481-1.17966 2.4923-.55094 2.4923.59514 0 .80396.45.46404 1s.0835 1 .94098 1c.85746 0 1.55902.4197 1.55902.9326s.8161 1.1916 1.81355 1.5082 3.43104 2.0344 5.40799 3.8174c5.09109 4.5916 7.28156 6.3701 10.2039 8.2849 1.40657.9216 2.26939 2.1417 1.91737 2.7113-.40188.6502.29435.857 1.87106.5556 1.72144-.3291 2.87148.097 3.6571 1.355.6303 1.0092 1.57173 1.835 2.09207 1.835 1.23405 0 6.03698 4.8097 6.03698 6.0455 0 .525-.49814.9545-1.10699.9545-.60884 0-.89023.5649-.6253 1.2553 1.45022 3.7792-8.82164 4.6899-19.7677 1.7527zm-156.75-35.6703c.6875-.2774 1.8125-.2774 2.5 0s.125.5044-1.25.5044-1.9375-.227-1.25-.5044zm676.25-10.4736c0-.5804.9402-2.3757 2.0893-3.9895 1.3682-1.9214 1.627-2.8376.75-2.6544-.7366.1539-1.2157-.3161-1.0645-1.0445.1511-.7284-.1937-1.0348-.7663-.6809s-.7461 1.1207-.3856 1.704c.3772.6104.066.8618-.7337.5922-.7641-.2577-2.8372.1339-4.6071.8702-6.0887 2.5332-6.8212 1.4696-2.3554-3.4199 1.6098-1.7624 3.2151-4.1126 3.5674-5.2228.5595-1.7628.1963-2.0185-2.8677-2.0185-1.9296 0-3.7865-.45-4.1264-1s-.1024-1 .5278-1c3.0117 0 16.9722-16.9234 16.9722-20.5742 0-.8894.7875-2.8135 1.75-4.2757 3.2731-4.9726 4.2367-6.6464 6.4192-11.1501 1.1994-2.475 3.1145-5.8442 4.2558-7.4872 1.1412-1.643 2.8405-4.6805 3.7761-6.75s2.1731-3.7628 2.75-3.7628 1.0489-.5216 1.0489-1.1591c0-.6376 1.7371-3.4599 3.8602-6.272 2.1232-2.8121 4.1846-6.228 4.5811-7.5909.3964-1.3629 3.0468-7.1262 5.8897-12.8074 4.2166-8.4262 6.1575-11.144 10.5339-14.75 2.9507-2.4313 6.0363-4.4206 6.857-4.4206.8921 0 1.2685-.5826.936-1.4491-.3854-1.0043-.076-1.2647 1.0094-.8483 1.321.5069 1.3856.2648.4139-1.551-.6334-1.1834-1.5239-2.1516-1.9789-2.1516s-2.5284-1.3518-4.6074-3.0041c-2.6493-2.1053-4.139-2.7063-4.9795-2.0086-.6597.5474-1.4442.7506-1.7433.4514-.2992-.2991-1.532 1.0548-2.7396 3.0087s-2.8112 3.5526-3.5635 3.5526c-1.7827 0-25.2562 22.6987-27.0457 26.153-.7559 1.4592-5.1634 6.4936-9.7945 11.1877-4.6311 4.694-8.1671 8.7877-7.8578 9.097s-.2018.5623-1.1357.5623-1.9571.675-2.2737 1.5c-.3662.9545-1.9039 1.5-4.228 1.5-2.5245 0-4.0245.5957-4.857 1.9287-.8077 1.2933-.8585 2.044-.1542 2.2788.5776.1925-1.2386.4496-4.0361.5714-3.1628.1376-5.0863-.1942-5.0863-.8773 0-.6042-1.4926.1832-3.3169 1.7499-2.0671 1.7751-2.9149 3.1253-2.25 3.5832.6452.4443.3956.7407-.6316.75-.9341.01-2.9236-1.1201-4.421-2.5079l-2.7226-2.5232-2.579 2.401c-2.4422 2.2737-6.278 4.6454-7.5132 4.6454-.3111 0-.5657-.7016-.5657-1.559 0-.9238-.4704-1.2683-1.1545-.8455-.72096.4456-.88279.2739-.43086-.4573.39796-.644 1.14246-.9119 1.65446-.5955s.9653.2113 1.0074-.2337c.042-.4449.2273-1.5965.4115-2.559.4566-2.3851-4.86129-2.7807-6.98796-.5197-.68355.7267-.60444.8398.25.3574.6875-.3882 1.25-.2292 1.25.3533 0 .9423-1.49671 1.4668-2.30854.809-.16969-.1375-1.77922.9875-3.57672 2.5-3.40663 2.8665-5.11474 3.4509-5.11474 1.75 0-.55-.45-1-1-1s-1 .7231-1 1.607c0 1.0176-.55016 1.3959-1.5 1.0314-.88074-.338-1.5-.014-1.5.786 0 .7489-.70352 1.6316-1.56338 1.9615-.85986.33-1.32536.9851-1.03443 1.4558.29092.4708-.80556.8938-2.43662.9402-1.88954.054-2.96557-.4142-2.96557-1.2898 0-2.7078-1.82771-2.4055-6.12911 1.0139-4.81753 3.8296-7.49979 4.5601-6.40379 1.744.3746-.9625.76024-2.2.85699-2.75.0968-.55.50663-1.2474.91085-1.5497.40422-.3024 1.01647-1.9573 1.36055-3.6778.80017-4.0008-.83033-3.8731-6.10967.4786-2.12528 1.7518-5.0985 3.6154-6.60714 4.1413-2.36479.8244-2.72372.7005-2.60325-.8988.0769-1.0203.48-1.6448.89588-1.3877.96079.5938 7.77076-8.6177 7.8039-10.5559.0193-1.1278-.24188-1.1833-1.17521-.25-1.89536 1.8954-3.28685 1.3964-1.53374-.55.86693-.9625 1.72417-2.3393 1.90499-3.0595.18081-.7202 1.71865-2.8127 3.41743-4.6501 1.69877-1.8374 3.84831-4.9415 4.77676-6.8981.92844-1.9565 2.05929-3.7868 2.51299-4.0672s1.64191-2.6491 2.64047-5.2638c.99855-2.6146 2.66212-5.6626 3.69682-6.7732 3.64623-3.9138 8.99748-14.6425 8.52808-17.098-.25019-1.3088-.0792-2.1474.38005-1.8636.77406.4784 6.3491-10.2226 7.0607-13.5527.1735-.8119.90383-2.1074 1.62296-2.8789s1.07955-1.9968.80093-2.7229c-.28572-.7446.0162-1.125.69249-.8725.65949.2462 2.9001-2.1961 4.97914-5.4274 2.73859-4.2564 5.42469-6.8901 9.74999-9.5598 6.0589-3.7398 7.4967-5.1817 4.0883-4.0999-1.1819.3751-2.0974.035-2.4621-.9157-.3331-.8681-1.2361-1.2615-2.1184-.9229-.8459.3246-1.5379.125-1.5379-.4435s.7875-1.1855 1.75-1.3711c1.1026-.2126-.4697-1.4093-4.25-3.2349-4.42891-2.1389-8.09469-3.054-14-3.4949-4.4-.3285-8.53141-.9381-9.1809-1.3547-.6495-.4165-1.43203-.351-1.73896.1456-1.02613 1.6603-7.78993 2.3922-8.80232.9524-.62685-.8915-1.07914-.9641-1.38729-.2227-.66419 1.598-10.6239.522-12.0717-1.3042-.64965-.8194-2.78214-1.5352-4.73885-1.5907-2.14279-.061-3.06498-.4138-2.31881-.8877.78029-.4955.24278-.7924-1.45213-.8021-1.48004-.01-2.9691-.4653-3.30902-1.0153s-2.3811-1-4.53596-1c-3.07773 0-4.26992-.5372-5.55928-2.505-1.22629-1.8716-1.36075-2.8431-.53173-3.842.61029-.7354.92693-1.5206.70365-1.745s1.46813-.5316 3.75868-.6827c5.43979-.3587 10.5741-2.063 12.9869-4.3109 2.21029-2.0592 11.0744-3.4545 15.9214-2.5062 1.79098.3505 10.6813 1.2936 19.7563 2.0958 9.075.8023 18.5548 1.8946 21.0662 2.4274 4.8925 1.0379 15.2775.025 18.7385-1.8269 2.434-1.3026 20.7028-.7464 22.4724.6842.6726.5438 3.8104 1.5604 6.9729 2.2591 3.1625.6988 5.75 1.5909 5.75 1.9825s2.2711 1.0133 5.047 1.3815c2.8855.3828 5.2768 1.2684 5.5835 2.0678.2951.769 1.9615 1.7026 3.703 2.0748 1.7416.3721 4.2915 1.2687 5.6665 1.9925s4.525 2.2067 7 3.2953 6.6326 2.9195 9.2391 4.0686c2.6065 1.149 5.419 2.0892 6.25 2.0892s1.5109.4875 1.5109 1.0833c0 .5959.5231.909 1.1625.6959.6394-.2132 2.598 1.0479 4.3524 2.8024 1.7545 1.7545 4.2689 3.5196 5.5875 3.9225 1.3187.4028 3.0726 1.2945 3.8976 1.9814.8469.7052 5.9262 1.5243 11.666 1.8813 6.3891.3973 11.7761 1.3193 14.5 2.4817 2.3837 1.0173 5.9342 2.1465 7.8901 2.5095 1.9558.3629 5.3135 1.5558 7.4614 2.6509 2.148 1.0951 4.4338 1.9911 5.0796 1.9911.6459 0 2.4632.6722 4.0386 1.4938 1.5754.8217 3.5518 1.4967 4.3921 1.5.8402 0 2.2983.9062 3.2402 2.0062.9418 1.1 2.5043 2.003 3.4722 2.0066.9679 0 3.1098.9006 4.7598 1.9934s3.7651 1.9898 4.7003 1.9934c.9352 0 2.0602.6058 2.5 1.3382s3.1622 2.6039 6.0497 4.1589c2.8875 1.5551 5.25 3.4308 5.25 4.1684s.5901 1.3411 1.3114 1.3411 2.2184.8449 3.3269 1.8777c1.1085 1.0327 2.9518 2.1748 4.0962 2.538 1.1444.3633 2.3332 1.3183 2.6417 2.1224.3086.804 1.202 1.4619 1.9854 1.4619s1.6944.7035 2.0243 1.5634c.33.8598 1.0729 1.2711 1.651.9138s2.1563.075 3.5071.9597c1.3508.885 2.456 1.2896 2.456.8991 0-.3906 1.2375.408 2.75 1.7746 1.5125 1.3667 3.8937 3.0517 5.2915 3.7445 2.9267 1.4506 3.7179 5.0831 1.1464 5.2629-.9284.065-10.0484.2089-20.2668.32l-18.5789.2021-3.6453 3.3172c-2.0049 1.8244-3.4054 3.7054-3.1121 4.1799s.025.8628-.5962.8628c-1.3221 0-9.9857 9.2423-11.5869 12.3609-.6041 1.1765-1.8543 3.4891-2.7782 5.1391s-2.9817 5.5044-4.5729 8.5654c-3.0576 5.882-13.8045 17.9346-15.9917 17.9346-.8118 0-1.0922.7647-.7542 2.0572.4667 1.7847.3249 1.884-1.0706.75-1.3851-1.1256-1.5147-1.0568-.9328.4947.3717.9911.2819 1.5586-.1994 1.261-.4814-.2975-1.456.1588-2.1658 1.014-.7097.8553-2.5574 2.2102-4.106 3.0109-1.5485.8008-2.7655 1.7837-2.7044 2.1841.3264 2.1384-.4315 3.113-3.3757 4.3413-1.7875.7457-3.8325 1.226-4.5445 1.0673s-2.962.7482-5 2.0154c-2.038 1.2673-4.1555 2.3307-4.7055 2.3633-2.6373.1562-5.5 1.7219-5.5 3.0082 0 .7879-.4766 1.4326-1.059 1.4326-.5825 0-.8211-.385-.5303-.8555.2908-.4706-.5826-.6431-1.941-.3835-2.1039.4022-2.4697.094-2.4697-2.077 0-3.3838-2.3512-3.9964-8.3663-2.1795-2.6764.8084-5.2328 1.2433-5.6809.9663-.448-.2769-1.1402.023-1.5382.6674-.4493.727-.2904.9031.4194.4644.7292-.4507.9362-.1675.5718.7823-.3142.8189-1.1482 1.2674-1.8533.9969-.7051-.2706-2.3554.7703-3.6673 2.3131-1.3118 1.5428-3.5102 2.9605-4.8852 3.1505s-2.65.7525-2.8333 1.25c-.1834.4975-.9709.9046-1.75.9046-.7792 0-1.4198.3375-1.4235.75-.012 1.2808-6.8327 5.4702-8.1768 5.0221-.7002-.2334-1.7328-.052-2.2947.4021-.562.4546-2.1467 1.7272-3.5217 2.8281-2.0281 1.6238-2.1225 1.8768-.5 1.3403 1.1-.3637 1.7234-.3504 1.3853.029-.6186.6951-2.4374 1.214-8.8853 2.5349-1.925.3943-3.3875 1.2516-3.25 1.905.1375.6535-.088 1.1348-.5 1.0697-1.7904-.2827-3.3315.1777-2.9064.8684.2538.4125-.8446.8444-2.441.9597-1.5964.1154-2.9026-.2651-2.9026-.8456zm-2-3.8641c0-.55.1984-1 .441-1 .2425 0 .7191.45 1.059 1s.1415 1-.441 1c-.5824 0-1.059-.45-1.059-1zm-612.921-30.4167c-.0434-1.0541.19293-1.6448.52522-1.3125s.36781 1.1948.0789 1.9167c-.31922.7977-.55618.5608-.60416-.6042zm524.921-28.0243c0-.2425.45-.7191 1-1.059s1-.1415 1 .441c0 .5824-.45 1.059-1 1.059s-1-.1984-1-.441zm36-1.559c0-.55.19844-1 .44098-1s.7191.45 1.05902 1 .14148 1-.44098 1-1.05902-.45-1.05902-1zm-502.921-22.4167c-.0434-1.0541.19293-1.6448.52522-1.3125s.36781 1.1948.0789 1.9167c-.31922.7977-.55618.5608-.60416-.6042zm732.671-12.2456c.6875-.2774 1.8125-.2774 2.5 0s.125.5044-1.25.5044-1.9375-.227-1.25-.5044zm-625-34.3138c1.7875-.4242 4.7125-.4242 6.5 0 2.59552.616 1.94103.7714-3.25.7714s-5.84552-.1554-3.25-.7714zm86.4775-.1112c-.95012-.3381-6.90249-.7273-13.2275-.8649-6.325-.1375-16.225-.3753-22-.5283s-16.125.024-23 .3941c-9.05859.4871-14.4272.288-19.5-.7234-3.85-.7676-8.65172-1.5258-10.6705-1.6848-4.43406-.3492-6.57814-1.4247-4.90365-2.4596.65416-.4043-.68446-1.2954-3.14323-2.0926-2.35544-.7636-5.40762-1.9627-6.78262-2.6646-1.375-.702-3.04014-1.2791-3.70031-1.2824-.66017 0-1.56017-.5687-2-1.2562-1.089-1.7022-4.88597-3.743-7.03612-3.7818-.96996-.017-2.59481-.6616-3.61077-1.4313-1.01596-.7698-2.44496-1.1701-3.17556-.8898-.7306.2804-2.10342-.6731-3.05072-2.1189s-2.2183-2.4402-2.82444-2.2098c-1.85267.704-5.60208-1.1607-5.60208-2.7862 0-1.4797-1.58322-1.9575-5.25-1.5845-1.55303.158-2.21803-.9433-1.5-2.4842.50226-1.0778-2.62457-2.2631-4.88749-1.8528-1.56219.2833-2.73858-.24-3.58447-1.5945-.69253-1.1089-2.20874-2.0162-3.36936-2.0162-3.44939 0-8.46309-2.103-7.75298-3.2519.36751-.5947.18027-.7648-.428-.3888-1.66258 1.0275-15.2689-.4836-14.5679-1.6179.36917-.5973-1.00105-.8236-3.52812-.5826-2.27243.2167-4.13169.01-4.13169-.4657 0-.4729-.55848-.6736-1.24107-.4461-.68259.2276-1.85501-.2002-2.60537-.9506-.75037-.7504-2.17902-1.1057-3.17478-.7897-.99575.3161-2.08775.126-2.42665-.4223-.3389-.5484-1.38927-.7493-2.33416-.4464-1.34621.4315-1.41824.3371-.33287-.4362 1.13875-.8113 1.04982-1.1599-.5-1.9597-1.03681-.5351-3.08787-.9076-4.55793-.8279-1.47006.08-2.47602-.1734-2.23548-.5626s-.46918-.9953-1.57717-1.347c-2.39323-.7596-2.65809-3.0437-.45114-3.8905.85986-.33 1.2833-1.0532.94099-1.607-.34468-.5577.34411-1.0071 1.5436-1.0071 1.5145 0 1.99287-.4512 1.5904-1.5-.41585-1.0837.10953-1.5 1.89301-1.5 1.35774 0 2.46862.4586 2.46862 1.0191 0 1.3144 4.71557.1724 7.95838-1.9273 3.17945-2.0587 16.0672-1.8015 22.1854.4428 2.39592.8789 5.25621 1.8566 6.35621 2.1727s2.675 1.1265 3.5 1.8007c.825.6743 3.525 1.5336 6 1.9096 2.475.3759 5.56636 1.3814 6.86969 2.2344 1.96417 1.2855 4.2744 1.4291 13.5.839 6.12167-.3916 11.6469-1.1293 12.2783-1.6393.63139-.51 2.14225-1.1187 3.35747-1.3527 1.21522-.2341 3.70014-1.5625 5.52206-2.9522 2.27341-1.734 3.44498-2.1376 3.73468-1.2867.61366 1.8026 4.73782-6.7101 4.73782-9.7793 0-1.4779.43132-2.3323 1-1.9808.5694.3519 1-.5093 1-2s.4306-2.3519 1-2c1.11841.6912 1.14584.4762 1.4989-11.75.14567-5.0442-.15015-8.75-.69848-8.75-.52313 0-.86955-1.2375-.76982-2.75.0997-1.5125.1002-2.975.001-3.25s-.38484-1.625-.63488-3c-.25003-1.375-.89159-2.65-1.42569-2.83333-.53404-.18334-.97103-1.09881-.97103-2.0344 0-2.445 5.14308-5.13227 9.8225-5.13227 5.15658 0 7.18893-.80663 6.50737-2.58276-.29912-.77948-.077-1.41724.49359-1.41724s1.18124-.99704 1.35699-2.21564c.47831-3.31641 6.30994-6.78436 11.4084-6.78436 2.3612 0 4.58311-.46926 4.93758-1.0428.76672-1.24057 26.4736-1.10831 26.4736.13621 0 .44878 1.6682 1.12892 3.70712 1.51142 4.18945.78595 13.9545 5.03866 14.8328 6.45972.31797.5145 1.4931.93545 2.61139.93545s3.17742.9 4.57584 2 3.42403 2 4.50135 2c1.09856 0 2.18188.85323 2.46683 1.94288.29589 1.13146 1.72199 2.2095 3.4147 2.58128 1.59864.35112 3.39141 1.54424 3.98393 2.65136.70003 1.30803 1.74771 1.83765 2.99168 1.51234 1.32005-.3452 1.91438.0165 1.91438 1.16521 0 .91621.93145 2.24754 2.0699 2.95851 1.45451.90835 1.98187 2.13192 1.7738 4.11553-.16286 1.55257.19425 3.44159.79358 4.19789.59932.7562 1.37943 3.275 1.73356 5.5971.5691 3.7318.36229 4.4067-1.78077 5.8108-1.8797 1.2317-3.28607 1.3848-6.25736.6815-3.04227-.7202-14.7458-.8958-20.873-.3133-.57215.054-1.81466 4.7114-2.76113 10.3489-.94648 5.6375-2.19253 12.05-2.769 14.25s-1.28036 5.125-1.56419 6.5c-.28384 1.375-.93893 3.4-1.45576 4.5-.51682 1.1-1.05696 3.8572-1.2003 6.1272-.14334 2.2699-.83343 4.8174-1.53355 5.661-.85803 1.0338-.93116 1.745-.22437 2.1818.57671.3564 1.04856 1.548 1.04856 2.648s.45 1.7219 1 1.382 1-.1506 1 .4207c0 .5712 1.81867 1.9665 4.04149 3.1005s4.93688 2.9572 6.03125 4.0515c1.09437 1.0944 3.36437 2.2647 5.04446 2.6007 1.68008.3361 3.28916 1.222 3.57574 1.9688.28657.7468 1.37289 1.3578 2.41405 1.3578 1.04115 0 1.89301.4766 1.89301 1.059 0 .5825.36557.8331.81238.557.44681-.2762 2.13431.3693 3.75 1.4343 1.61569 1.0651 3.65941 1.9395 4.5416 1.9431 2.66564.011 7.0678 4.7789 6.71362 7.2715-.27656 1.9462-1.06361 2.3015-6.09011 2.7488-3.17488.2826-6.54988.2371-7.5-.101zm8.77251-82.9127c1.1003-.7111.43413-.9547-2.5-.9144-3.14267.043-3.57133.2392-2 .9144 2.63124 1.1307 2.75039 1.1307 4.5 0zm-110.25 75.3377c.6875-.2774 1.8125-.2774 2.5 0s.125.5044-1.25.5044-1.9375-.227-1.25-.5044zm905.25-48.2787c0-.5824.45-1.059 1-1.059s1 .1984 1 .441c0 .2425-.45.7191-1 1.059s-1 .1415-1-.441zm-10.4751-3.8505c-1.0863-.243-2.4446-1.084-3.0185-1.8688-1.5726-2.1507-23.2871-2.4598-23.8653-.3397-.3365 1.2339-.4297 1.2137-.5251-.1141-.125-1.7394-5.6159-2.8859-13.8213-2.8859-2.4344 0-5.3472-.4929-6.473-1.0954-1.1257-.6025-4.5836-1.2136-7.6842-1.358-3.2547-.1515-7.3282-1.1317-9.6375-2.319-2.2-1.1311-6.25-3.0382-9-4.2381-7.1589-3.1235-17.5-9.9822-17.5-11.607 0-.7604-.5766-1.3825-1.2814-1.3825-.7047 0-3.5596-2.1375-6.3441-4.75-2.7846-2.6125-6.1072-5.425-7.3836-6.25-1.2765-.825-3.0879-2.22878-4.0254-3.11951-2.6088-2.47868-13.0198-7.49576-17.1427-8.26116-2.0225-.37546-3.8335-1.15158-4.0246-1.72471-.2045-.61354-4.4495-1.11455-10.3228-1.21834-5.4865-.0969-10.2004-.4137-10.4754-.70388-1.4398-1.51927-9.5983-4.35223-12.0055-4.1688-1.7729.13509-2.998-.37033-3.3931-1.39984-.3418-.89093-1.2623-1.36412-2.0589-1.05844-1.0224.39233-1.262.0595-.8254-1.14625 1.5523-4.28684 3.2042-5.4975 7.8747-5.77096 2.5825-.15121 4.9684-.64689 5.3018-1.10152 1.5193-2.07101 8.4301-4.19788 14.2367-4.38144 6.7881-.2146 8.6122.324 18.9943 5.60829 6.132 3.12109 11.1428 4.52139 16.5517 4.62545 1.592.0306 2.0115.48206 1.5627 1.68149-.4916 1.31405-.3281 1.41278.8238.49723 2.4705-1.96375 5.3392-1.95557 7.3156.0208 1.8686 1.86854 1.9206 1.86696 3.0115-.0919.6106-1.0963 1.7264-1.77884 2.4796-1.51675 1.0833.37692 1.2487-.51027.7914-4.24434-.318-2.59648-1.0119-5.24349-1.542-5.88225-.7912-.95332-.9222-5.41243-.2613-8.89324.2516-1.32532 3.8564-.79959 5.1424.75.6847.825 1.8166 1.5 2.5155 1.5.6988 0 1.5295-.675 1.8461-1.5.651-1.69653 4.1932-2.02931 5.1485-.48369.3454.55897 1.047.75742 1.559.44098.512-.31643.9309-.0506.9309.59068 0 .72571.6608.88658 1.75.42603 3.5547-1.50308 11.0004-1.47964 12.2605.0386.6688.80596 1.6151 1.21878 2.1028.91737.4877-.3014.8867.15355.8867 1.01101 0 .96261.8847 1.55902 2.3127 1.55902 1.3347 0 4.4003 1.88865 7.25 4.46657 2.7155 2.45662 5.3012 4.48162 5.746 4.5 1.7894.074 15.089 13.2053 17.4883 17.2669.8988 1.52159 1.9872 2.76653 2.4186 2.76653s.7844.675.7844 1.5.5966 1.5 1.3257 1.5c1.7911 0 5.6743 4.24694 5.6743 6.20587 0 .90638 1.7009 2.2575 4 3.1774 2.2.8803 4 2.0807 4 2.6676s.4189.8082.9309.4918 1.2181-.1106 1.5691.4573 1.0683.7668 1.5939.442c.5256-.3249.832.01.6809.7337-.1674.8065.8685 1.4546 2.6495 1.6575 2.1853.2491 2.5644.5611 1.5 1.2347-1.1071.7007-1.129.9049-.098.9168 1.6368.019 13.007 8.6331 15.4966 11.7404 1.0024 1.2512 2.4649 2.2749 3.25 2.2749s1.4274.45 1.4274 1 .7016 1 1.559 1c.8575 0 1.3181.3899 1.0236.8664-.2945.4764.3051 1.627 1.3325 2.5568 1.7001 1.5386 1.8549 5.5197.2183 5.6128-.3484.02-4.7959.287-9.8834.5937-6.533.3938-9.25.226-9.25-.5713 0-.7361-.6088-.8295-1.75-.2684-.9625.4732-2.6388.6615-3.7251.4185zm-99.5249-81.2085c0-.55.1984-1 .441-1 .2425 0 .7191.45 1.059 1s.1415 1-.441 1c-.5824 0-1.059-.45-1.059-1zm-321.753-120.127c.3312-3.00273-2.1407-3.49189-6.7037-1.3266-4.8588 2.30564-9.9812 1.21607-14.2225-3.02521-5.0724-5.07244-4.0487-7.19236 1.9598-4.05822 1.5295.79782 3.5159 1.16857 4.4141.8239 1.0179-.39062 1.3851-.22545.9748.43847-1.0183 1.6477 1.7732 2.23686 4.398.92823 1.3365-.66632 2.6428-2.46636 3.0215-4.16364.3669-1.64443 2.1114-6.36487 3.8767-10.4899 1.7654-4.125 3.7327-8.85 4.3718-10.5.6392-1.65 1.4323-3.225 1.7625-3.5 1.5337-1.27746 3.0299-5.49909 4.3225-12.1966 1.8055-9.35447 2.7261-11.5681 6.4939-15.6151 1.6958-1.82144 3.0833-3.74807 3.0833-4.28138 0-.53332.6579-1.22212 1.4619-1.53067.8041-.30854 1.7466-1.4577 2.0944-2.55369.7374-2.32313-2.9397-6.82254-5.5756-6.82254-.9189 0-2.4852-.9-3.4807-2s-2.5795-2-3.5201-2-2.7834-.83537-4.095-1.85638c-1.3117-1.02101-4.8599-2.43291-7.8849-3.13756-6.6044-1.53842-12.2082-3.86026-11.6187-4.81399.2353-.38064-1.6667-.62606-4.2267-.54537-6.0658.19117-10.3177-.57386-9.6043-1.72807.4735-.76608-8.2276-1.49393-12.1865-1.01941-.6249.0749-1.4093-.5753-1.743-1.44489-.3336-.8696-1.0434-1.31116-1.5773-.98124-.5338.32992-1.91-.33957-3.0582-1.48777-1.2692-1.26921-2.7963-1.8627-3.8953-1.51389-1.0138.32178-2.3585-.0901-3.0621-.93784-.69-.83136-1.5536-1.32672-1.9192-1.10079-.3655.22593-1.7655-.41959-3.1109-1.43447-2.40523-1.81429-2.41475-1.88008-.56706-3.92179 1.19176-1.31684 3.10796-2.07654 5.23786-2.07654 1.8472 0 4.1399-.4335 5.095-.96333 6.0567-3.36009 10.6056-4.75296 15.633-4.78682 3.089-.0208 5.865.36448 6.1689.85617s1.8278.89398 3.3865.89398c1.6781 0 3.085.65412 3.4494 1.60375.3454.90006 1.2583 1.35707 2.0806 1.04154.8058-.30922 1.8145-.0159 2.2416.65174.8936 1.39715 5.5952 3.13405 12.7764 4.71997 8.9576 1.97822 31.5 1.23885 31.5-1.03318 0-1.52991 10.6386-3.25247 16.6185-2.69079 5.9163.55569 7.6195.88715 10.3815 2.02027 3.6188 1.48464 10.9012 3.93256 15.6233 5.25171 6.6287 1.85171 12.2283 4.20324 15.4377 6.48289 1.4085 1.00052 3.8806 2.15033 5.4935 2.55514 1.6129.4048 5.1058 2.01739 7.7619 3.58353 2.6562 1.56614 6.3716 3.49189 8.2565 4.27945s3.4271 1.86913 3.4271 2.4035c0 .53436 1.3537 1.2689 3.0083 1.63231 1.6546.3634 3.4615 1.5074 4.0153 2.54221.5538 1.03482 1.6159 1.64779 2.3602 1.36216.7945-.30485 1.5755.33001 1.8912 1.53724.3642 1.39303 1.3555 2.05656 3.0724 2.05656 1.394 0 2.8005.43035 3.1256.95633s1.2061.7203 1.9579.43182c.7517-.28847 1.6639-.0438 2.027.54368.3631.58749.071 1.07506-.6489 1.08348-.9512.0111-.899.2803.191.98469.825.53316 2.7671.97627 4.3157.98469 1.5487.008 3.7032.49024 4.7878 1.07071 2.8167 1.50745 5.8515.30736 5.3824-2.12844-.2097-1.08921.01-1.7404.4815-1.4471 1.0927.67534 5.2445-16.7641 4.4709-18.7801-.3161-.82362-.099-1.79139.4821-2.15059.6478-.40037.8618.0442.5531 1.14885-.277.99107.1578.45194.9663-1.19806s1.4903-3.70734 1.5151-4.57186c.025-.86452.7925-3.76539 1.706-6.44636 1.1438-3.35682 1.317-4.98916.5562-5.24275-1.5028-.50093-.344-3.23903 1.3708-3.23903.7557 0 1.6348-1.2375 1.9535-2.75s1.0175-3.5558 1.5529-4.54068c.5354-.98487.7358-2.17522.4453-2.64521-.2905-.47.099-1.09536.8664-1.38968.7671-.29433 2.2141-3.71649 3.2158-7.60479 1.0016-3.8883 2.1715-7.06964 2.5997-7.06964s.7785-.42744.7785-.94987c0-1.3543 5.9866-10.0501 6.919-10.0501 1.319 0 4.3729-7.79704 3.7201-9.49816-.407-1.06066-.2229-1.36268.5423-.88973.7737.47816.9464.16325.5199-.94807-.3512-.91522-.2027-1.66404.3301-1.66404.5327 0 .9686-1.3125.9686-2.91667 0-1.60416.4747-3.07488 1.0548-3.26827.5802-.19338 1.3987-2.88549 1.8189-5.98246.5868-4.32412.4754-5.52004-.4803-5.15331-.6845.26266-2.0048-.68273-2.934-2.10087-.9292-1.41813-2.3127-2.57842-3.0744-2.57842-.7618 0-1.385-.49814-1.385-1.10699 0-.60884-.6132-.87169-1.3626-.58411-.7494.28759-4.4619-.62585-8.25-2.02986-5.7397-2.12737-8.691-2.56511-17.7111-2.62695-5.9531-.0408-10.0031-.3976-9-.79286 1.425-.56155 1.1679-.7658-1.1763-.93431-1.65-.11861-4.4968-.11113-6.3262.0166-1.9258.13448-3.8204-.37088-4.5-1.20026-.6456-.78789-2.7488-2.04816-4.6738-2.80061-1.925-.75244-5.0416-2.40798-6.9258-3.67896-2.6158-1.76449-3.6108-2.01149-4.2083-1.04465-.6233 1.00844-1.0354 1.01345-2.0243.0246-.9888-.98885-.9464-1.24828.2084-1.27425.7975-.0179-.7036-.98226-3.3357-2.14294s-4.6203-2.6085-4.4183-3.21739c.3821-1.15139 1.2618-1.4773 11.204-4.15086 3.3-.88741 8.4537-2.32366 11.4528-3.19168 4.5554-1.3185 6.4479-1.38516 11.5-.4051 3.3259.64521 8.2972 1.60726 11.0472 2.1379 2.75.53063 12.425 1.20795 21.5 1.50516 9.075.2972 18.1211.78406 20.1024 1.0819s8.329-.16031 14.106-1.01811c8.0382-1.19355 11.6525-1.31305 15.3976-.50908 2.6917.57782 6.952 1.43664 9.4673 1.90849 2.5153.47186 6.5653 1.75506 9 2.85156s6.2684 2.25519 8.5195 2.57487c5.5778.79215 17.3353 5.94076 28.9072 12.6585 2.75 1.59645 6.0266 2.91314 7.2814 2.92599 1.2547.0129 2.5383.69288 2.8523 1.51117.314.8183 3.2269 2.83747 6.473 4.48704 5.6353 2.86364 15.1628 11.4223 14.0047 12.5804-.3027.30273.2233.2535 1.1691-.10942 1.0201-.39147 1.7195-.1856 1.7195.50617 0 .6413.4223.90498.9385.58595.5162-.31902 1.3037.0259 1.75.7664.7803 1.29467 3.7244 2.87497 5.8115 3.11945 2.2285.26103 5.9885 1.92181 7.284 3.21729.7575.7575 1.7783 1.12942 2.2684.82651 1.2-.74164 5.9476 2.44697 5.9476 3.99457 0 .67769.9572 1.6593 2.1272 2.18135l2.1272.94918-2.4251 2.81935c-2.405 2.79601-2.5199 2.81878-13.8772 2.75151-6.2987-.0373-12.5771-.11285-13.9521-.16789-1.375-.055-5.1518.20947-8.3929.5878-4.2897.50072-5.7019.37889-5.191-.44782.8681-1.40456-.9156-1.47389-3.4212-.13298-1.2524.67028-2.079.67028-2.4932 0-.3409-.55148-1.5197-1.0027-2.6197-1.0027s-1.7219.45-1.382 1-.282 1-1.382 1-2.3253.52647-2.723 1.16994c-.4816.77924-.1844.96322.89.55093 1.1479-.4405 1.4481-.18892 1.0409.87232-.3148.82024-1.0794 1.32032-1.6991 1.1113s-1.7227.33447-2.451 1.20774c-1.0323 1.23782-1.1597 1.25717-.5781.0878.8396-1.68807-.9767-.19414-9.2148 7.57931-2.9606 2.79362-5.3829 5.7966-5.3829 6.67328s-1.125 2.93095-2.5 4.56504c-1.375 1.6341-2.5 3.91471-2.5 5.06803s-1.2473 3.33836-2.7719 4.85564c-1.5245 1.51729-4.0607 4.6712-5.636 7.0087-1.5752 2.3375-3.5082 4.25-4.2955 4.25-.9763 0-1.2296.63585-.7966 2 .4505 1.41932.1797 2-.9326 2-.8621 0-1.5674.36325-1.5674.80722 0 1.48539-5.2728 7.19278-6.645 7.19278-.7453 0-1.355 1.01819-1.355 2.26265s-1.1165 3.10113-2.4812 4.12594c-1.3646 1.02481-2.28 2.1888-2.0341 2.58664.5653.91465-3.724 3.26138-5.1901 2.83962-.602-.17317-1.1826.13515-1.2901.68515s-.5016 1.225-.8758 1.5-2.1691 2.4125-3.9886 4.75c-2.1694 2.7871-4.0919 4.25-5.5852 4.25-1.6745 0-2.9016 1.17734-4.6375 4.44958-2.5259 4.76151-6.9014 8.07284-7.6644 5.80042-.6779-2.01896-3.7267-1.43914-6.1835 1.17597-1.3977 1.48779-1.9832 2.93801-1.5139 3.75.4208.72822.3913.98495-.065.57052-.4568-.41443-1.9153-.0427-3.2412.82599-1.3258.86872-2.9475 1.37345-3.6038 1.12161s-2.7574 1.09345-4.6692 2.98952c-2.7909 2.76792-4.0255 3.33937-6.2641 2.89928-1.8887-.37131-2.965-.0868-3.3368.88207-.3019.7866-2.1103 2.62115-4.0187 4.07678-2.5571 1.9504-4.1409 2.47817-6.0209 2.00633-2.1307-.53477-2.4665-1.08265-2.0378-3.32515.4891-2.5584.445-2.59156-.9353-.7039-.7967 1.08954-2.2166 2.01984-3.1554 2.06735-.9389.0475-2.5139.44059-3.5001.87354-2.2806 1.00117-2.5907.64863-2.8905-3.28695-.1351-1.77224-.7115-3.04791-1.281-2.83483-4.6224 1.72956-5.2987 1.67512-5.8601-.47176-.3149-1.20434-.1208-3.03396.4314-4.06582.5523-1.03185.7491-2.67957.4374-3.66159-.4825-1.52036-1.4188-1.71328-6.3054-1.29917-3.1563.26747-7.5387.44859-9.7387.40248-2.2-.0461-8.2339-.18605-13.4088-.31096-8.9034-.21493-9.6407-.0715-13.728 2.67078-2.3756 1.59385-4.3291 3.26563-4.3412 3.71506-.012.44944-1.7095 2.41321-3.772 4.36394s-3.6037 4.23161-3.425 5.06862c.2199 1.02979-.1842 1.32643-1.25.91745-1.0376-.39818-1.575-.0465-1.575 1.03089 0 .89941-.301 1.3343-.6688.96643-.3679-.36786-1.4929.0769-2.5.98833-1.0072.91144-1.8312 1.38391-1.8312 1.04993s-1.1907.49627-2.646 1.84501-3.2553 2.45225-4 2.45225-1.354.5051-1.354 1.12244c0 .75866-.4051.80197-1.25.13364-.8576-.67843-2.1401-.43808-4.0856.76568-1.6465 1.0187-2.3175 1.92722-1.6 2.16636.6796.22654-.3039.41188-2.1855.41188-5.9084 0-18.8789 7.88508-18.8789 11.4769 0 .5077-.9266.92308-2.059.92308-1.2908 0-1.7952-.42682-1.352-1.14395.8805-1.4247-5.0441 2.00461-7.6653 4.43682-1.0626.98608-2.7177 1.66108-3.6779 1.5-1.1636-.19521-1.8524.45745-2.0654 1.95713-.1877 1.32219-1.0125 2.24369-2 2.23469-1.4504-.0132-1.4751-.148-.1804-.98469 1.9089-1.23364 1.5633-1.19967-4.5.44225-2.75.74469-4.9175 1.75988-4.8166 2.25597.1008.49609-1.4355 1.011-3.4141 1.14425s-4.021.50406-4.5387.82401-2.4701.78776-4.3386 1.03957c-3.0595.41231-3.3723.22998-3.1447-1.83311zm29.0235-4.47711c.3323-.33229 1.1948-.36781 1.9167-.0789.7977.31922.5608.55618-.6042.60416-1.0541.0434-1.6448-.19293-1.3125-.52522zm-63.7708-88.3958c-.3519-.5694.5093-1 2-1s2.3519.4306 2 1c-.3399.55-1.2399 1-2 1s-1.6601-.45-2-1zm339.579-83.4167c-.043-1.05416.193-1.64479.5253-1.3125s.3678 1.1948.079 1.91667c-.3192.79773-.5562.56078-.6042-.60417z" inkscape:connector-curvature="0"/>
</svg>
